<svg width="6.833in" height="10.072in" viewBox="0 0 6.833 10.072" xmlns="http://www.w3.org/2000/svg" version="1.1" preserveAspectRatio="xMidYMid meet"><g id="svgGroup" stroke-linecap="round" fill-rule="evenodd" font-size="9pt" stroke="#000" stroke-width="0.25mm" fill="none" style="stroke:#000;stroke-width:0.25mm;fill:none"><path d="M 0.671 10.061 L 0.671 9.954 L 0.943 9.954 L 0.943 10.061 L 0.954 10.072 L 1.28 10.072 L 1.291 10.061 L 1.291 9.954 L 1.603 9.954 L 1.614 9.943 L 1.614 9.511 L 1.603 9.5 L 1.33 9.5 L 1.33 9.228 L 1.603 9.228 L 1.614 9.217 L 1.614 8.892 L 1.603 8.881 L 1.33 8.881 L 1.33 8.609 L 1.603 8.609 L 1.614 8.598 L 1.614 8.272 L 1.603 8.261 L 1.33 8.261 L 1.33 7.989 L 1.603 7.989 L 1.614 7.978 L 1.614 7.653 L 1.603 7.642 L 1.33 7.642 L 1.33 7.37 L 1.603 7.37 L 1.614 7.359 L 1.614 6.927 L 1.603 6.916 L 1.291 6.916 L 1.291 6.809 L 1.28 6.798 L 0.954 6.798 L 0.943 6.809 L 0.943 6.916 L 0.671 6.916 L 0.671 6.809 L 0.66 6.798 L 0.335 6.798 L 0.324 6.809 L 0.324 6.916 L 0.296 6.916 L 0.285 6.927 L 0.285 7.332 L 0.011 7.332 L 0 7.343 L 0 7.668 L 0.011 7.68 L 0.285 7.68 L 0.285 7.951 L 0.011 7.951 L 0 7.963 L 0 8.288 L 0.011 8.299 L 0.285 8.299 L 0.285 8.571 L 0.011 8.571 L 0 8.582 L 0 8.907 L 0.011 8.919 L 0.285 8.919 L 0.285 9.19 L 0.011 9.19 L 0 9.202 L 0 9.527 L 0.011 9.538 L 0.285 9.538 L 0.285 9.943 L 0.296 9.954 L 0.324 9.954 L 0.324 10.061 L 0.335 10.072 L 0.66 10.072 L 0.671 10.061 Z" id="side1_outsideCutPath" stroke="#FF0000" stroke-width="0.1" style="stroke:#FF0000;stroke-width:0.1" vector-effect="non-scaling-stroke"/><path d="M 0.452 8.548 L 0.452 8.524 A 0.13 0.13 0 0 0 0.479 8.534 A 0.118 0.118 0 0 0 0.498 8.537 A 0.101 0.101 0 0 0 0.507 8.538 A 0.103 0.103 0 0 0 0.518 8.537 Q 0.524 8.536 0.529 8.535 A 0.04 0.04 0 0 0 0.538 8.531 A 0.023 0.023 0 0 0 0.546 8.524 Q 0.549 8.519 0.549 8.511 A 0.021 0.021 0 0 0 0.543 8.496 A 0.03 0.03 0 0 0 0.54 8.494 A 0.047 0.047 0 0 0 0.535 8.49 Q 0.529 8.486 0.519 8.482 A 0.319 0.319 0 0 0 0.507 8.477 A 0.393 0.393 0 0 1 0.495 8.473 Q 0.484 8.468 0.477 8.464 A 0.071 0.071 0 0 1 0.472 8.461 Q 0.462 8.455 0.457 8.446 Q 0.452 8.438 0.452 8.426 A 0.042 0.042 0 0 1 0.455 8.409 Q 0.459 8.399 0.469 8.392 A 0.06 0.06 0 0 1 0.487 8.384 Q 0.495 8.382 0.504 8.381 A 0.129 0.129 0 0 1 0.516 8.38 A 0.138 0.138 0 0 1 0.571 8.391 L 0.561 8.413 Q 0.54 8.404 0.522 8.402 A 0.089 0.089 0 0 0 0.514 8.402 Q 0.496 8.402 0.486 8.408 Q 0.477 8.414 0.477 8.424 A 0.023 0.023 0 0 0 0.477 8.43 A 0.018 0.018 0 0 0 0.48 8.436 Q 0.483 8.439 0.488 8.443 A 0.055 0.055 0 0 0 0.492 8.445 A 0.076 0.076 0 0 0 0.496 8.447 Q 0.505 8.452 0.522 8.458 Q 0.553 8.469 0.564 8.48 A 0.039 0.039 0 0 1 0.574 8.505 A 0.052 0.052 0 0 1 0.574 8.509 A 0.052 0.052 0 0 1 0.572 8.525 A 0.042 0.042 0 0 1 0.556 8.546 Q 0.542 8.556 0.519 8.559 A 0.139 0.139 0 0 1 0.506 8.559 A 0.176 0.176 0 0 1 0.486 8.558 Q 0.466 8.556 0.452 8.548 Z M 0.82 8.556 L 0.816 8.533 L 0.815 8.533 A 0.059 0.059 0 0 1 0.772 8.559 A 0.088 0.088 0 0 1 0.761 8.559 A 0.079 0.079 0 0 1 0.738 8.556 A 0.06 0.06 0 0 1 0.708 8.536 A 0.077 0.077 0 0 1 0.694 8.51 Q 0.689 8.493 0.689 8.47 A 0.155 0.155 0 0 1 0.691 8.444 Q 0.693 8.43 0.698 8.419 A 0.074 0.074 0 0 1 0.708 8.404 A 0.062 0.062 0 0 1 0.752 8.381 A 0.088 0.088 0 0 1 0.761 8.38 A 0.077 0.077 0 0 1 0.784 8.383 A 0.059 0.059 0 0 1 0.814 8.406 L 0.817 8.406 L 0.815 8.393 L 0.815 8.381 L 0.815 8.311 L 0.841 8.311 L 0.841 8.556 L 0.82 8.556 Z M 1.033 8.458 L 1.033 8.474 L 0.914 8.474 A 0.105 0.105 0 0 0 0.916 8.492 Q 0.919 8.51 0.929 8.521 A 0.048 0.048 0 0 0 0.954 8.535 A 0.072 0.072 0 0 0 0.97 8.536 A 0.138 0.138 0 0 0 1.022 8.526 A 0.158 0.158 0 0 0 1.026 8.525 L 1.026 8.548 A 0.157 0.157 0 0 1 1.011 8.553 A 0.12 0.12 0 0 1 0.999 8.557 A 0.11 0.11 0 0 1 0.988 8.558 Q 0.98 8.559 0.969 8.559 A 0.102 0.102 0 0 1 0.944 8.556 A 0.072 0.072 0 0 1 0.909 8.536 A 0.077 0.077 0 0 1 0.891 8.502 Q 0.887 8.488 0.887 8.471 A 0.137 0.137 0 0 1 0.889 8.444 Q 0.893 8.427 0.9 8.414 A 0.078 0.078 0 0 1 0.907 8.405 A 0.067 0.067 0 0 1 0.956 8.38 A 0.092 0.092 0 0 1 0.963 8.38 A 0.08 0.08 0 0 1 0.985 8.383 A 0.061 0.061 0 0 1 1.014 8.401 A 0.073 0.073 0 0 1 1.031 8.435 A 0.107 0.107 0 0 1 1.033 8.458 Z M 1.163 8.326 L 1.163 8.556 L 1.137 8.556 L 1.137 8.392 A 0.595 0.595 0 0 1 1.138 8.365 A 0.503 0.503 0 0 1 1.138 8.353 A 0.149 0.149 0 0 1 1.135 8.356 A 0.188 0.188 0 0 1 1.131 8.36 A 0.094 0.094 0 0 1 1.129 8.361 Q 1.123 8.367 1.093 8.391 L 1.079 8.373 L 1.14 8.326 L 1.163 8.326 Z M 0.643 8.383 L 0.643 8.556 L 0.617 8.556 L 0.617 8.383 L 0.643 8.383 Z M 0.815 8.476 L 0.815 8.47 A 0.175 0.175 0 0 0 0.814 8.452 Q 0.812 8.434 0.806 8.423 A 0.039 0.039 0 0 0 0.803 8.418 Q 0.792 8.404 0.769 8.402 A 0.084 0.084 0 0 0 0.764 8.402 A 0.047 0.047 0 0 0 0.748 8.405 A 0.039 0.039 0 0 0 0.728 8.42 A 0.062 0.062 0 0 0 0.72 8.437 Q 0.718 8.445 0.717 8.455 A 0.146 0.146 0 0 0 0.716 8.47 A 0.145 0.145 0 0 0 0.717 8.489 Q 0.718 8.498 0.721 8.505 A 0.055 0.055 0 0 0 0.728 8.52 Q 0.74 8.537 0.764 8.537 A 0.078 0.078 0 0 0 0.778 8.536 Q 0.786 8.535 0.792 8.531 A 0.035 0.035 0 0 0 0.803 8.523 A 0.043 0.043 0 0 0 0.81 8.51 Q 0.814 8.498 0.815 8.48 A 0.166 0.166 0 0 0 0.815 8.476 Z M 0.915 8.453 L 1.005 8.453 A 0.089 0.089 0 0 0 1.004 8.439 Q 1.003 8.431 1 8.425 A 0.04 0.04 0 0 0 0.994 8.415 A 0.036 0.036 0 0 0 0.972 8.403 A 0.054 0.054 0 0 0 0.962 8.402 Q 0.942 8.402 0.929 8.416 Q 0.918 8.428 0.915 8.449 A 0.099 0.099 0 0 0 0.915 8.453 Z M 0.615 8.332 A 0.029 0.029 0 0 0 0.615 8.336 A 0.031 0.031 0 0 0 0.615 8.339 A 0.014 0.014 0 0 0 0.619 8.35 A 0.015 0.015 0 0 0 0.624 8.353 A 0.017 0.017 0 0 0 0.63 8.354 A 0.015 0.015 0 0 0 0.641 8.35 Q 0.644 8.347 0.645 8.341 A 0.027 0.027 0 0 0 0.646 8.336 Q 0.646 8.332 0.645 8.329 A 0.013 0.013 0 0 0 0.641 8.323 A 0.015 0.015 0 0 0 0.63 8.319 A 0.02 0.02 0 0 0 0.629 8.319 A 0.015 0.015 0 0 0 0.619 8.323 Q 0.616 8.326 0.615 8.332 Z M 0.616 8.344 Q 0.615 8.342 0.615 8.339" id="side1_labelLayer" stroke="#777777" fill="#777777" style="stroke:#777777;fill:#777777" vector-effect="non-scaling-stroke"/><path d="M 2.411 10.061 L 2.411 9.954 L 2.682 9.954 L 2.682 10.061 L 2.694 10.072 L 3.019 10.072 L 3.03 10.061 L 3.03 9.954 L 3.343 9.954 L 3.354 9.943 L 3.354 9.511 L 3.343 9.5 L 3.069 9.5 L 3.069 9.228 L 3.343 9.228 L 3.354 9.217 L 3.354 8.892 L 3.343 8.881 L 3.069 8.881 L 3.069 8.609 L 3.343 8.609 L 3.354 8.598 L 3.354 8.272 L 3.343 8.261 L 3.069 8.261 L 3.069 7.989 L 3.343 7.989 L 3.354 7.978 L 3.354 7.653 L 3.343 7.642 L 3.069 7.642 L 3.069 7.37 L 3.343 7.37 L 3.354 7.359 L 3.354 6.927 L 3.343 6.916 L 3.03 6.916 L 3.03 6.809 L 3.019 6.798 L 2.694 6.798 L 2.682 6.809 L 2.682 6.916 L 2.411 6.916 L 2.411 6.809 L 2.4 6.798 L 2.074 6.798 L 2.063 6.809 L 2.063 6.916 L 2.035 6.916 L 2.024 6.927 L 2.024 7.332 L 1.751 7.332 L 1.739 7.343 L 1.739 7.668 L 1.751 7.68 L 2.024 7.68 L 2.024 7.951 L 1.751 7.951 L 1.739 7.963 L 1.739 8.288 L 1.751 8.299 L 2.024 8.299 L 2.024 8.571 L 1.751 8.571 L 1.739 8.582 L 1.739 8.907 L 1.751 8.919 L 2.024 8.919 L 2.024 9.19 L 1.751 9.19 L 1.739 9.202 L 1.739 9.527 L 1.751 9.538 L 2.024 9.538 L 2.024 9.943 L 2.035 9.954 L 2.063 9.954 L 2.063 10.061 L 2.074 10.072 L 2.4 10.072 L 2.411 10.061 Z" id="side3_outsideCutPath" stroke="#FF0000" stroke-width="0.1" style="stroke:#FF0000;stroke-width:0.1" vector-effect="non-scaling-stroke"/><path d="M 2.874 8.435 L 2.874 8.436 A 0.102 0.102 0 0 1 2.89 8.439 Q 2.906 8.444 2.915 8.454 A 0.048 0.048 0 0 1 2.927 8.479 A 0.068 0.068 0 0 1 2.928 8.491 A 0.076 0.076 0 0 1 2.926 8.512 A 0.056 0.056 0 0 1 2.906 8.541 Q 2.888 8.555 2.858 8.558 A 0.173 0.173 0 0 1 2.841 8.559 A 0.211 0.211 0 0 1 2.822 8.558 A 0.164 0.164 0 0 1 2.807 8.556 Q 2.792 8.554 2.778 8.547 L 2.778 8.522 Q 2.793 8.529 2.809 8.533 A 0.158 0.158 0 0 0 2.829 8.536 A 0.128 0.128 0 0 0 2.842 8.537 A 0.112 0.112 0 0 0 2.863 8.535 Q 2.898 8.528 2.901 8.497 A 0.065 0.065 0 0 0 2.901 8.49 Q 2.901 8.45 2.84 8.448 A 0.197 0.197 0 0 0 2.835 8.448 L 2.813 8.448 L 2.813 8.426 L 2.836 8.426 A 0.099 0.099 0 0 0 2.853 8.424 Q 2.868 8.422 2.878 8.414 A 0.038 0.038 0 0 0 2.894 8.386 A 0.052 0.052 0 0 0 2.894 8.381 Q 2.894 8.364 2.883 8.354 Q 2.872 8.346 2.855 8.345 A 0.077 0.077 0 0 0 2.851 8.345 A 0.1 0.1 0 0 0 2.829 8.347 A 0.09 0.09 0 0 0 2.823 8.349 A 0.089 0.089 0 0 0 2.812 8.353 Q 2.807 8.355 2.801 8.359 A 0.193 0.193 0 0 0 2.792 8.364 L 2.779 8.346 A 0.108 0.108 0 0 1 2.806 8.331 A 0.125 0.125 0 0 1 2.812 8.329 A 0.119 0.119 0 0 1 2.851 8.322 Q 2.875 8.322 2.891 8.33 A 0.058 0.058 0 0 1 2.903 8.338 A 0.05 0.05 0 0 1 2.921 8.373 A 0.071 0.071 0 0 1 2.921 8.38 A 0.064 0.064 0 0 1 2.919 8.396 A 0.048 0.048 0 0 1 2.909 8.416 A 0.055 0.055 0 0 1 2.89 8.43 A 0.079 0.079 0 0 1 2.874 8.435 Z M 2.165 8.548 L 2.165 8.524 A 0.13 0.13 0 0 0 2.192 8.534 A 0.118 0.118 0 0 0 2.211 8.537 A 0.101 0.101 0 0 0 2.219 8.538 A 0.103 0.103 0 0 0 2.231 8.537 Q 2.237 8.536 2.242 8.535 A 0.04 0.04 0 0 0 2.251 8.531 A 0.023 0.023 0 0 0 2.258 8.524 Q 2.262 8.519 2.262 8.511 A 0.021 0.021 0 0 0 2.256 8.496 A 0.03 0.03 0 0 0 2.253 8.494 A 0.047 0.047 0 0 0 2.248 8.49 Q 2.242 8.486 2.231 8.482 A 0.319 0.319 0 0 0 2.22 8.477 A 0.393 0.393 0 0 1 2.208 8.473 Q 2.197 8.468 2.19 8.464 A 0.071 0.071 0 0 1 2.185 8.461 Q 2.175 8.455 2.17 8.446 Q 2.165 8.438 2.165 8.426 A 0.042 0.042 0 0 1 2.168 8.409 Q 2.172 8.399 2.182 8.392 A 0.06 0.06 0 0 1 2.2 8.384 Q 2.208 8.382 2.217 8.381 A 0.129 0.129 0 0 1 2.229 8.38 A 0.138 0.138 0 0 1 2.284 8.391 L 2.274 8.413 Q 2.253 8.404 2.234 8.402 A 0.089 0.089 0 0 0 2.227 8.402 Q 2.209 8.402 2.199 8.408 Q 2.19 8.414 2.19 8.424 A 0.023 0.023 0 0 0 2.19 8.43 A 0.018 0.018 0 0 0 2.193 8.436 Q 2.196 8.439 2.201 8.443 A 0.055 0.055 0 0 0 2.205 8.445 A 0.076 0.076 0 0 0 2.209 8.447 Q 2.218 8.452 2.235 8.458 Q 2.266 8.469 2.276 8.48 A 0.039 0.039 0 0 1 2.287 8.505 A 0.052 0.052 0 0 1 2.287 8.509 A 0.052 0.052 0 0 1 2.285 8.525 A 0.042 0.042 0 0 1 2.269 8.546 Q 2.255 8.556 2.232 8.559 A 0.139 0.139 0 0 1 2.219 8.559 A 0.176 0.176 0 0 1 2.199 8.558 Q 2.178 8.556 2.165 8.548 Z M 2.533 8.556 L 2.529 8.533 L 2.528 8.533 A 0.059 0.059 0 0 1 2.484 8.559 A 0.088 0.088 0 0 1 2.473 8.559 A 0.079 0.079 0 0 1 2.451 8.556 A 0.06 0.06 0 0 1 2.421 8.536 A 0.077 0.077 0 0 1 2.407 8.51 Q 2.402 8.493 2.402 8.47 A 0.155 0.155 0 0 1 2.404 8.444 Q 2.406 8.43 2.411 8.419 A 0.074 0.074 0 0 1 2.421 8.404 A 0.062 0.062 0 0 1 2.465 8.381 A 0.088 0.088 0 0 1 2.473 8.38 A 0.077 0.077 0 0 1 2.497 8.383 A 0.059 0.059 0 0 1 2.527 8.406 L 2.529 8.406 L 2.528 8.393 L 2.528 8.381 L 2.528 8.311 L 2.554 8.311 L 2.554 8.556 L 2.533 8.556 Z M 2.746 8.458 L 2.746 8.474 L 2.627 8.474 A 0.105 0.105 0 0 0 2.629 8.492 Q 2.632 8.51 2.642 8.521 A 0.048 0.048 0 0 0 2.667 8.535 A 0.072 0.072 0 0 0 2.683 8.536 A 0.138 0.138 0 0 0 2.735 8.526 A 0.158 0.158 0 0 0 2.738 8.525 L 2.738 8.548 A 0.157 0.157 0 0 1 2.724 8.553 A 0.12 0.12 0 0 1 2.712 8.557 A 0.11 0.11 0 0 1 2.701 8.558 Q 2.693 8.559 2.682 8.559 A 0.102 0.102 0 0 1 2.657 8.556 A 0.072 0.072 0 0 1 2.622 8.536 A 0.077 0.077 0 0 1 2.603 8.502 Q 2.6 8.488 2.6 8.471 A 0.137 0.137 0 0 1 2.602 8.444 Q 2.606 8.427 2.613 8.414 A 0.078 0.078 0 0 1 2.62 8.405 A 0.067 0.067 0 0 1 2.669 8.38 A 0.092 0.092 0 0 1 2.676 8.38 A 0.08 0.08 0 0 1 2.698 8.383 A 0.061 0.061 0 0 1 2.727 8.401 A 0.073 0.073 0 0 1 2.744 8.435 A 0.107 0.107 0 0 1 2.746 8.458 Z M 2.356 8.383 L 2.356 8.556 L 2.33 8.556 L 2.33 8.383 L 2.356 8.383 Z M 2.528 8.476 L 2.528 8.47 A 0.175 0.175 0 0 0 2.527 8.452 Q 2.525 8.434 2.519 8.423 A 0.039 0.039 0 0 0 2.515 8.418 Q 2.505 8.404 2.482 8.402 A 0.084 0.084 0 0 0 2.476 8.402 A 0.047 0.047 0 0 0 2.461 8.405 A 0.039 0.039 0 0 0 2.441 8.42 A 0.062 0.062 0 0 0 2.433 8.437 Q 2.431 8.445 2.43 8.455 A 0.146 0.146 0 0 0 2.429 8.47 A 0.145 0.145 0 0 0 2.43 8.489 Q 2.431 8.498 2.434 8.505 A 0.055 0.055 0 0 0 2.441 8.52 Q 2.453 8.537 2.477 8.537 A 0.078 0.078 0 0 0 2.491 8.536 Q 2.499 8.535 2.505 8.531 A 0.035 0.035 0 0 0 2.516 8.523 A 0.043 0.043 0 0 0 2.523 8.51 Q 2.527 8.498 2.528 8.48 A 0.166 0.166 0 0 0 2.528 8.476 Z M 2.627 8.453 L 2.718 8.453 A 0.089 0.089 0 0 0 2.717 8.439 Q 2.715 8.431 2.713 8.425 A 0.04 0.04 0 0 0 2.707 8.415 A 0.036 0.036 0 0 0 2.685 8.403 A 0.054 0.054 0 0 0 2.675 8.402 Q 2.654 8.402 2.642 8.416 Q 2.631 8.428 2.628 8.449 A 0.099 0.099 0 0 0 2.627 8.453 Z M 2.328 8.332 A 0.029 0.029 0 0 0 2.328 8.336 A 0.031 0.031 0 0 0 2.328 8.339 A 0.014 0.014 0 0 0 2.332 8.35 A 0.015 0.015 0 0 0 2.337 8.353 A 0.017 0.017 0 0 0 2.343 8.354 A 0.015 0.015 0 0 0 2.354 8.35 Q 2.357 8.347 2.358 8.341 A 0.027 0.027 0 0 0 2.359 8.336 Q 2.359 8.332 2.357 8.329 A 0.013 0.013 0 0 0 2.354 8.323 A 0.015 0.015 0 0 0 2.343 8.319 A 0.02 0.02 0 0 0 2.342 8.319 A 0.015 0.015 0 0 0 2.332 8.323 Q 2.329 8.326 2.328 8.332 Z M 2.329 8.344 Q 2.328 8.342 2.328 8.339" id="side3_labelLayer" stroke="#777777" fill="#777777" style="stroke:#777777;fill:#777777" vector-effect="non-scaling-stroke"/><path d="M 4.15 10.061 L 4.15 9.954 L 4.422 9.954 L 4.422 10.061 L 4.433 10.072 L 4.758 10.072 L 4.77 10.061 L 4.77 9.954 L 5.082 9.954 L 5.093 9.943 L 5.093 9.511 L 5.082 9.5 L 4.808 9.5 L 4.808 9.228 L 5.082 9.228 L 5.093 9.217 L 5.093 8.892 L 5.082 8.881 L 4.808 8.881 L 4.808 8.609 L 5.082 8.609 L 5.093 8.598 L 5.093 8.272 L 5.082 8.261 L 4.808 8.261 L 4.808 7.989 L 5.082 7.989 L 5.093 7.978 L 5.093 7.653 L 5.082 7.642 L 4.808 7.642 L 4.808 7.37 L 5.082 7.37 L 5.093 7.359 L 5.093 6.927 L 5.082 6.916 L 4.77 6.916 L 4.77 6.809 L 4.758 6.798 L 4.433 6.798 L 4.422 6.809 L 4.422 6.916 L 4.15 6.916 L 4.15 6.809 L 4.139 6.798 L 3.813 6.798 L 3.802 6.809 L 3.802 6.916 L 3.775 6.916 L 3.764 6.927 L 3.764 7.332 L 3.49 7.332 L 3.479 7.343 L 3.479 7.668 L 3.49 7.68 L 3.764 7.68 L 3.764 7.951 L 3.49 7.951 L 3.479 7.963 L 3.479 8.288 L 3.49 8.299 L 3.764 8.299 L 3.764 8.571 L 3.49 8.571 L 3.479 8.582 L 3.479 8.907 L 3.49 8.919 L 3.764 8.919 L 3.764 9.19 L 3.49 9.19 L 3.479 9.202 L 3.479 9.527 L 3.49 9.538 L 3.764 9.538 L 3.764 9.943 L 3.775 9.954 L 3.802 9.954 L 3.802 10.061 L 3.813 10.072 L 4.139 10.072 L 4.15 10.061 Z" id="side5_outsideCutPath" stroke="#FF0000" stroke-width="0.1" style="stroke:#FF0000;stroke-width:0.1" vector-effect="non-scaling-stroke"/><path d="M 4.523 8.547 L 4.523 8.522 A 0.074 0.074 0 0 0 4.535 8.528 Q 4.541 8.53 4.548 8.532 A 0.129 0.129 0 0 0 4.55 8.533 A 0.136 0.136 0 0 0 4.581 8.537 A 0.127 0.127 0 0 0 4.583 8.537 A 0.095 0.095 0 0 0 4.6 8.535 Q 4.609 8.534 4.616 8.53 A 0.047 0.047 0 0 0 4.626 8.524 Q 4.641 8.511 4.641 8.486 Q 4.641 8.438 4.582 8.438 A 0.133 0.133 0 0 0 4.572 8.438 Q 4.561 8.439 4.547 8.441 A 0.453 0.453 0 0 0 4.542 8.442 L 4.528 8.433 L 4.537 8.326 L 4.652 8.326 L 4.652 8.35 L 4.56 8.35 L 4.554 8.419 A 0.184 0.184 0 0 1 4.59 8.415 Q 4.626 8.415 4.647 8.433 A 0.059 0.059 0 0 1 4.667 8.472 A 0.085 0.085 0 0 1 4.668 8.483 A 0.091 0.091 0 0 1 4.665 8.506 A 0.065 0.065 0 0 1 4.645 8.539 Q 4.624 8.558 4.589 8.559 A 0.15 0.15 0 0 1 4.582 8.559 A 0.196 0.196 0 0 1 4.561 8.558 Q 4.538 8.556 4.524 8.547 A 0.057 0.057 0 0 1 4.523 8.547 Z M 3.904 8.548 L 3.904 8.524 A 0.13 0.13 0 0 0 3.931 8.534 A 0.118 0.118 0 0 0 3.95 8.537 A 0.101 0.101 0 0 0 3.959 8.538 A 0.103 0.103 0 0 0 3.97 8.537 Q 3.976 8.536 3.981 8.535 A 0.04 0.04 0 0 0 3.99 8.531 A 0.023 0.023 0 0 0 3.998 8.524 Q 4.001 8.519 4.001 8.511 A 0.021 0.021 0 0 0 3.995 8.496 A 0.03 0.03 0 0 0 3.993 8.494 A 0.047 0.047 0 0 0 3.987 8.49 Q 3.981 8.486 3.971 8.482 A 0.319 0.319 0 0 0 3.959 8.477 A 0.393 0.393 0 0 1 3.947 8.473 Q 3.936 8.468 3.929 8.464 A 0.071 0.071 0 0 1 3.924 8.461 Q 3.914 8.455 3.909 8.446 Q 3.904 8.438 3.904 8.426 A 0.042 0.042 0 0 1 3.907 8.409 Q 3.912 8.399 3.921 8.392 A 0.06 0.06 0 0 1 3.939 8.384 Q 3.947 8.382 3.957 8.381 A 0.129 0.129 0 0 1 3.968 8.38 A 0.138 0.138 0 0 1 4.023 8.391 L 4.014 8.413 Q 3.992 8.404 3.974 8.402 A 0.089 0.089 0 0 0 3.966 8.402 Q 3.948 8.402 3.938 8.408 Q 3.929 8.414 3.929 8.424 A 0.023 0.023 0 0 0 3.93 8.43 A 0.018 0.018 0 0 0 3.932 8.436 Q 3.935 8.439 3.94 8.443 A 0.055 0.055 0 0 0 3.944 8.445 A 0.076 0.076 0 0 0 3.949 8.447 Q 3.957 8.452 3.974 8.458 Q 4.005 8.469 4.016 8.48 A 0.039 0.039 0 0 1 4.026 8.505 A 0.052 0.052 0 0 1 4.026 8.509 A 0.052 0.052 0 0 1 4.024 8.525 A 0.042 0.042 0 0 1 4.009 8.546 Q 3.994 8.556 3.972 8.559 A 0.139 0.139 0 0 1 3.958 8.559 A 0.176 0.176 0 0 1 3.938 8.558 Q 3.918 8.556 3.904 8.548 Z M 4.272 8.556 L 4.268 8.533 L 4.267 8.533 A 0.059 0.059 0 0 1 4.224 8.559 A 0.088 0.088 0 0 1 4.213 8.559 A 0.079 0.079 0 0 1 4.19 8.556 A 0.06 0.06 0 0 1 4.16 8.536 A 0.077 0.077 0 0 1 4.146 8.51 Q 4.141 8.493 4.141 8.47 A 0.155 0.155 0 0 1 4.143 8.444 Q 4.145 8.43 4.151 8.419 A 0.074 0.074 0 0 1 4.16 8.404 A 0.062 0.062 0 0 1 4.204 8.381 A 0.088 0.088 0 0 1 4.213 8.38 A 0.077 0.077 0 0 1 4.236 8.383 A 0.059 0.059 0 0 1 4.267 8.406 L 4.269 8.406 L 4.268 8.393 L 4.267 8.381 L 4.267 8.311 L 4.293 8.311 L 4.293 8.556 L 4.272 8.556 Z M 4.485 8.458 L 4.485 8.474 L 4.366 8.474 A 0.105 0.105 0 0 0 4.368 8.492 Q 4.371 8.51 4.381 8.521 A 0.048 0.048 0 0 0 4.406 8.535 A 0.072 0.072 0 0 0 4.423 8.536 A 0.138 0.138 0 0 0 4.474 8.526 A 0.158 0.158 0 0 0 4.478 8.525 L 4.478 8.548 A 0.157 0.157 0 0 1 4.463 8.553 A 0.12 0.12 0 0 1 4.451 8.557 A 0.11 0.11 0 0 1 4.441 8.558 Q 4.432 8.559 4.422 8.559 A 0.102 0.102 0 0 1 4.396 8.556 A 0.072 0.072 0 0 1 4.361 8.536 A 0.077 0.077 0 0 1 4.343 8.502 Q 4.339 8.488 4.339 8.471 A 0.137 0.137 0 0 1 4.342 8.444 Q 4.345 8.427 4.353 8.414 A 0.078 0.078 0 0 1 4.36 8.405 A 0.067 0.067 0 0 1 4.408 8.38 A 0.092 0.092 0 0 1 4.415 8.38 A 0.08 0.08 0 0 1 4.437 8.383 A 0.061 0.061 0 0 1 4.466 8.401 A 0.073 0.073 0 0 1 4.483 8.435 A 0.107 0.107 0 0 1 4.485 8.458 Z M 4.095 8.383 L 4.095 8.556 L 4.069 8.556 L 4.069 8.383 L 4.095 8.383 Z M 4.267 8.476 L 4.267 8.47 A 0.175 0.175 0 0 0 4.266 8.452 Q 4.264 8.434 4.258 8.423 A 0.039 0.039 0 0 0 4.255 8.418 Q 4.244 8.404 4.221 8.402 A 0.084 0.084 0 0 0 4.216 8.402 A 0.047 0.047 0 0 0 4.2 8.405 A 0.039 0.039 0 0 0 4.18 8.42 A 0.062 0.062 0 0 0 4.173 8.437 Q 4.17 8.445 4.169 8.455 A 0.146 0.146 0 0 0 4.168 8.47 A 0.145 0.145 0 0 0 4.169 8.489 Q 4.17 8.498 4.173 8.505 A 0.055 0.055 0 0 0 4.18 8.52 Q 4.192 8.537 4.216 8.537 A 0.078 0.078 0 0 0 4.23 8.536 Q 4.238 8.535 4.244 8.531 A 0.035 0.035 0 0 0 4.255 8.523 A 0.043 0.043 0 0 0 4.262 8.51 Q 4.266 8.498 4.267 8.48 A 0.166 0.166 0 0 0 4.267 8.476 Z M 4.367 8.453 L 4.457 8.453 A 0.089 0.089 0 0 0 4.456 8.439 Q 4.455 8.431 4.452 8.425 A 0.04 0.04 0 0 0 4.446 8.415 A 0.036 0.036 0 0 0 4.424 8.403 A 0.054 0.054 0 0 0 4.414 8.402 Q 4.394 8.402 4.381 8.416 Q 4.37 8.428 4.367 8.449 A 0.099 0.099 0 0 0 4.367 8.453 Z M 4.067 8.332 A 0.029 0.029 0 0 0 4.067 8.336 A 0.031 0.031 0 0 0 4.067 8.339 A 0.014 0.014 0 0 0 4.071 8.35 A 0.015 0.015 0 0 0 4.077 8.353 A 0.017 0.017 0 0 0 4.082 8.354 A 0.015 0.015 0 0 0 4.093 8.35 Q 4.096 8.347 4.097 8.341 A 0.027 0.027 0 0 0 4.098 8.336 Q 4.098 8.332 4.097 8.329 A 0.013 0.013 0 0 0 4.093 8.323 A 0.015 0.015 0 0 0 4.082 8.319 A 0.02 0.02 0 0 0 4.081 8.319 A 0.015 0.015 0 0 0 4.071 8.323 Q 4.068 8.326 4.067 8.332 Z M 4.068 8.344 Q 4.067 8.342 4.067 8.339" id="side5_labelLayer" stroke="#777777" fill="#777777" style="stroke:#777777;fill:#777777" vector-effect="non-scaling-stroke"/><path d="M 5.89 10.061 L 5.89 9.954 L 6.161 9.954 L 6.161 10.061 L 6.172 10.072 L 6.498 10.072 L 6.509 10.061 L 6.509 9.954 L 6.821 9.954 L 6.833 9.943 L 6.833 9.511 L 6.821 9.5 L 6.548 9.5 L 6.548 9.228 L 6.821 9.228 L 6.833 9.217 L 6.833 8.892 L 6.821 8.881 L 6.548 8.881 L 6.548 8.609 L 6.821 8.609 L 6.833 8.598 L 6.833 8.272 L 6.821 8.261 L 6.548 8.261 L 6.548 7.989 L 6.821 7.989 L 6.833 7.978 L 6.833 7.653 L 6.821 7.642 L 6.548 7.642 L 6.548 7.37 L 6.821 7.37 L 6.833 7.359 L 6.833 6.927 L 6.821 6.916 L 6.509 6.916 L 6.509 6.809 L 6.498 6.798 L 6.172 6.798 L 6.161 6.809 L 6.161 6.916 L 5.89 6.916 L 5.89 6.809 L 5.878 6.798 L 5.553 6.798 L 5.542 6.809 L 5.542 6.916 L 5.514 6.916 L 5.503 6.927 L 5.503 7.332 L 5.229 7.332 L 5.218 7.343 L 5.218 7.668 L 5.229 7.68 L 5.503 7.68 L 5.503 7.951 L 5.229 7.951 L 5.218 7.963 L 5.218 8.288 L 5.229 8.299 L 5.503 8.299 L 5.503 8.571 L 5.229 8.571 L 5.218 8.582 L 5.218 8.907 L 5.229 8.919 L 5.503 8.919 L 5.503 9.19 L 5.229 9.19 L 5.218 9.202 L 5.218 9.527 L 5.229 9.538 L 5.503 9.538 L 5.503 9.943 L 5.514 9.954 L 5.542 9.954 L 5.542 10.061 L 5.553 10.072 L 5.878 10.072 L 5.89 10.061 Z" id="side7_outsideCutPath" stroke="#FF0000" stroke-width="0.1" style="stroke:#FF0000;stroke-width:0.1" vector-effect="non-scaling-stroke"/><path d="M 5.643 8.548 L 5.643 8.524 A 0.13 0.13 0 0 0 5.669 8.534 A 0.118 0.118 0 0 0 5.688 8.537 A 0.101 0.101 0 0 0 5.697 8.538 A 0.103 0.103 0 0 0 5.709 8.537 Q 5.714 8.536 5.719 8.535 A 0.04 0.04 0 0 0 5.729 8.531 A 0.023 0.023 0 0 0 5.736 8.524 Q 5.74 8.519 5.74 8.511 A 0.021 0.021 0 0 0 5.733 8.496 A 0.03 0.03 0 0 0 5.731 8.494 A 0.047 0.047 0 0 0 5.725 8.49 Q 5.719 8.486 5.709 8.482 A 0.319 0.319 0 0 0 5.698 8.477 A 0.393 0.393 0 0 1 5.685 8.473 Q 5.674 8.468 5.667 8.464 A 0.071 0.071 0 0 1 5.662 8.461 Q 5.652 8.455 5.647 8.446 Q 5.642 8.438 5.642 8.426 A 0.042 0.042 0 0 1 5.646 8.409 Q 5.65 8.399 5.659 8.392 A 0.06 0.06 0 0 1 5.678 8.384 Q 5.686 8.382 5.695 8.381 A 0.129 0.129 0 0 1 5.707 8.38 A 0.138 0.138 0 0 1 5.761 8.391 L 5.752 8.413 Q 5.73 8.404 5.712 8.402 A 0.089 0.089 0 0 0 5.705 8.402 Q 5.686 8.402 5.677 8.408 Q 5.667 8.414 5.667 8.424 A 0.023 0.023 0 0 0 5.668 8.43 A 0.018 0.018 0 0 0 5.671 8.436 Q 5.673 8.439 5.678 8.443 A 0.055 0.055 0 0 0 5.682 8.445 A 0.076 0.076 0 0 0 5.687 8.447 Q 5.695 8.452 5.712 8.458 Q 5.743 8.469 5.754 8.48 A 0.039 0.039 0 0 1 5.765 8.505 A 0.052 0.052 0 0 1 5.765 8.509 A 0.052 0.052 0 0 1 5.762 8.525 A 0.042 0.042 0 0 1 5.747 8.546 Q 5.733 8.556 5.71 8.559 A 0.139 0.139 0 0 1 5.696 8.559 A 0.176 0.176 0 0 1 5.676 8.558 Q 5.656 8.556 5.643 8.548 Z M 6.314 8.556 L 6.285 8.556 L 6.381 8.35 L 6.255 8.35 L 6.255 8.326 L 6.408 8.326 L 6.408 8.347 L 6.314 8.556 Z M 6.01 8.556 L 6.007 8.533 L 6.005 8.533 A 0.059 0.059 0 0 1 5.962 8.559 A 0.088 0.088 0 0 1 5.951 8.559 A 0.079 0.079 0 0 1 5.928 8.556 A 0.06 0.06 0 0 1 5.898 8.536 A 0.077 0.077 0 0 1 5.885 8.51 Q 5.879 8.493 5.879 8.47 A 0.155 0.155 0 0 1 5.881 8.444 Q 5.884 8.43 5.889 8.419 A 0.074 0.074 0 0 1 5.898 8.404 A 0.062 0.062 0 0 1 5.942 8.381 A 0.088 0.088 0 0 1 5.951 8.38 A 0.077 0.077 0 0 1 5.974 8.383 A 0.059 0.059 0 0 1 6.005 8.406 L 6.007 8.406 L 6.006 8.393 L 6.005 8.381 L 6.005 8.311 L 6.031 8.311 L 6.031 8.556 L 6.01 8.556 Z M 6.223 8.458 L 6.223 8.474 L 6.104 8.474 A 0.105 0.105 0 0 0 6.106 8.492 Q 6.11 8.51 6.12 8.521 A 0.048 0.048 0 0 0 6.145 8.535 A 0.072 0.072 0 0 0 6.161 8.536 A 0.138 0.138 0 0 0 6.213 8.526 A 0.158 0.158 0 0 0 6.216 8.525 L 6.216 8.548 A 0.157 0.157 0 0 1 6.202 8.553 A 0.12 0.12 0 0 1 6.19 8.557 A 0.11 0.11 0 0 1 6.179 8.558 Q 6.17 8.559 6.16 8.559 A 0.102 0.102 0 0 1 6.134 8.556 A 0.072 0.072 0 0 1 6.099 8.536 A 0.077 0.077 0 0 1 6.081 8.502 Q 6.077 8.488 6.077 8.471 A 0.137 0.137 0 0 1 6.08 8.444 Q 6.083 8.427 6.091 8.414 A 0.078 0.078 0 0 1 6.098 8.405 A 0.067 0.067 0 0 1 6.147 8.38 A 0.092 0.092 0 0 1 6.153 8.38 A 0.08 0.08 0 0 1 6.176 8.383 A 0.061 0.061 0 0 1 6.204 8.401 A 0.073 0.073 0 0 1 6.221 8.435 A 0.107 0.107 0 0 1 6.223 8.458 Z M 5.834 8.383 L 5.834 8.556 L 5.807 8.556 L 5.807 8.383 L 5.834 8.383 Z M 6.005 8.476 L 6.005 8.47 A 0.175 0.175 0 0 0 6.004 8.452 Q 6.002 8.434 5.996 8.423 A 0.039 0.039 0 0 0 5.993 8.418 Q 5.982 8.404 5.959 8.402 A 0.084 0.084 0 0 0 5.954 8.402 A 0.047 0.047 0 0 0 5.938 8.405 A 0.039 0.039 0 0 0 5.919 8.42 A 0.062 0.062 0 0 0 5.911 8.437 Q 5.908 8.445 5.907 8.455 A 0.146 0.146 0 0 0 5.907 8.47 A 0.145 0.145 0 0 0 5.908 8.489 Q 5.909 8.498 5.911 8.505 A 0.055 0.055 0 0 0 5.919 8.52 Q 5.931 8.537 5.954 8.537 A 0.078 0.078 0 0 0 5.969 8.536 Q 5.976 8.535 5.983 8.531 A 0.035 0.035 0 0 0 5.993 8.523 A 0.043 0.043 0 0 0 6 8.51 Q 6.005 8.498 6.005 8.48 A 0.166 0.166 0 0 0 6.005 8.476 Z M 6.105 8.453 L 6.195 8.453 A 0.089 0.089 0 0 0 6.194 8.439 Q 6.193 8.431 6.19 8.425 A 0.04 0.04 0 0 0 6.184 8.415 A 0.036 0.036 0 0 0 6.163 8.403 A 0.054 0.054 0 0 0 6.153 8.402 Q 6.132 8.402 6.12 8.416 Q 6.108 8.428 6.106 8.449 A 0.099 0.099 0 0 0 6.105 8.453 Z M 5.806 8.332 A 0.029 0.029 0 0 0 5.805 8.336 A 0.031 0.031 0 0 0 5.805 8.339 A 0.014 0.014 0 0 0 5.81 8.35 A 0.015 0.015 0 0 0 5.815 8.353 A 0.017 0.017 0 0 0 5.821 8.354 A 0.015 0.015 0 0 0 5.831 8.35 Q 5.835 8.347 5.836 8.341 A 0.027 0.027 0 0 0 5.836 8.336 Q 5.836 8.332 5.835 8.329 A 0.013 0.013 0 0 0 5.831 8.323 A 0.015 0.015 0 0 0 5.821 8.319 A 0.02 0.02 0 0 0 5.819 8.319 A 0.015 0.015 0 0 0 5.81 8.323 Q 5.806 8.326 5.806 8.332 Z M 5.806 8.344 Q 5.806 8.342 5.805 8.339" id="side7_labelLayer" stroke="#777777" fill="#777777" style="stroke:#777777;fill:#777777" vector-effect="non-scaling-stroke"/><path d="M 0.671 6.662 L 0.671 6.555 L 0.943 6.555 L 0.943 6.662 L 0.954 6.673 L 1.28 6.673 L 1.291 6.662 L 1.291 6.555 L 1.603 6.555 L 1.614 6.544 L 1.614 6.112 L 1.603 6.101 L 1.33 6.101 L 1.33 5.829 L 1.603 5.829 L 1.614 5.818 L 1.614 5.493 L 1.603 5.482 L 1.33 5.482 L 1.33 5.21 L 1.603 5.21 L 1.614 5.199 L 1.614 4.873 L 1.603 4.862 L 1.33 4.862 L 1.33 4.59 L 1.603 4.59 L 1.614 4.579 L 1.614 4.254 L 1.603 4.243 L 1.33 4.243 L 1.33 3.971 L 1.603 3.971 L 1.614 3.96 L 1.614 3.528 L 1.603 3.517 L 1.291 3.517 L 1.291 3.41 L 1.28 3.399 L 0.954 3.399 L 0.943 3.41 L 0.943 3.517 L 0.671 3.517 L 0.671 3.41 L 0.66 3.399 L 0.335 3.399 L 0.324 3.41 L 0.324 3.517 L 0.296 3.517 L 0.285 3.528 L 0.285 3.933 L 0.011 3.933 L 0 3.944 L 0 4.269 L 0.011 4.281 L 0.285 4.281 L 0.285 4.552 L 0.011 4.552 L 0 4.564 L 0 4.889 L 0.011 4.9 L 0.285 4.9 L 0.285 5.172 L 0.011 5.172 L 0 5.183 L 0 5.508 L 0.011 5.52 L 0.285 5.52 L 0.285 5.791 L 0.011 5.791 L 0 5.803 L 0 6.128 L 0.011 6.139 L 0.285 6.139 L 0.285 6.544 L 0.296 6.555 L 0.324 6.555 L 0.324 6.662 L 0.335 6.673 L 0.66 6.673 L 0.671 6.662 Z" id="side0_outsideCutPath" stroke="#FF0000" stroke-width="0.1" style="stroke:#FF0000;stroke-width:0.1" vector-effect="non-scaling-stroke"/><path d="M 0.424 5.149 L 0.424 5.125 A 0.13 0.13 0 0 0 0.451 5.135 A 0.118 0.118 0 0 0 0.47 5.138 A 0.101 0.101 0 0 0 0.479 5.139 A 0.103 0.103 0 0 0 0.49 5.138 Q 0.496 5.137 0.501 5.136 A 0.04 0.04 0 0 0 0.51 5.132 A 0.023 0.023 0 0 0 0.518 5.125 Q 0.521 5.12 0.521 5.112 A 0.021 0.021 0 0 0 0.515 5.097 A 0.03 0.03 0 0 0 0.512 5.095 A 0.047 0.047 0 0 0 0.507 5.091 Q 0.501 5.087 0.491 5.083 A 0.319 0.319 0 0 0 0.479 5.078 A 0.393 0.393 0 0 1 0.467 5.074 Q 0.456 5.069 0.449 5.065 A 0.071 0.071 0 0 1 0.444 5.062 Q 0.434 5.056 0.429 5.047 Q 0.424 5.039 0.424 5.027 A 0.042 0.042 0 0 1 0.427 5.01 Q 0.431 5 0.441 4.993 A 0.06 0.06 0 0 1 0.459 4.985 Q 0.467 4.983 0.477 4.982 A 0.129 0.129 0 0 1 0.488 4.981 A 0.138 0.138 0 0 1 0.543 4.992 L 0.534 5.014 Q 0.512 5.005 0.494 5.003 A 0.089 0.089 0 0 0 0.486 5.003 Q 0.468 5.003 0.458 5.009 Q 0.449 5.015 0.449 5.025 A 0.023 0.023 0 0 0 0.45 5.031 A 0.018 0.018 0 0 0 0.452 5.037 Q 0.455 5.04 0.46 5.044 A 0.055 0.055 0 0 0 0.464 5.046 A 0.076 0.076 0 0 0 0.468 5.048 Q 0.477 5.053 0.494 5.059 Q 0.525 5.07 0.536 5.081 A 0.039 0.039 0 0 1 0.546 5.106 A 0.052 0.052 0 0 1 0.546 5.11 A 0.052 0.052 0 0 1 0.544 5.126 A 0.042 0.042 0 0 1 0.528 5.147 Q 0.514 5.157 0.492 5.16 A 0.139 0.139 0 0 1 0.478 5.16 A 0.176 0.176 0 0 1 0.458 5.159 Q 0.438 5.157 0.424 5.149 Z M 0.792 5.157 L 0.788 5.134 L 0.787 5.134 A 0.059 0.059 0 0 1 0.744 5.16 A 0.088 0.088 0 0 1 0.733 5.16 A 0.079 0.079 0 0 1 0.71 5.157 A 0.06 0.06 0 0 1 0.68 5.137 A 0.077 0.077 0 0 1 0.666 5.111 Q 0.661 5.094 0.661 5.071 A 0.155 0.155 0 0 1 0.663 5.045 Q 0.665 5.031 0.67 5.02 A 0.074 0.074 0 0 1 0.68 5.005 A 0.062 0.062 0 0 1 0.724 4.982 A 0.088 0.088 0 0 1 0.733 4.981 A 0.077 0.077 0 0 1 0.756 4.984 A 0.059 0.059 0 0 1 0.787 5.007 L 0.789 5.007 L 0.787 4.994 L 0.787 4.982 L 0.787 4.912 L 0.813 4.912 L 0.813 5.157 L 0.792 5.157 Z M 1.005 5.059 L 1.005 5.075 L 0.886 5.075 A 0.105 0.105 0 0 0 0.888 5.093 Q 0.891 5.111 0.901 5.122 A 0.048 0.048 0 0 0 0.926 5.136 A 0.072 0.072 0 0 0 0.942 5.137 A 0.138 0.138 0 0 0 0.994 5.127 A 0.158 0.158 0 0 0 0.998 5.126 L 0.998 5.149 A 0.157 0.157 0 0 1 0.983 5.154 A 0.12 0.12 0 0 1 0.971 5.158 A 0.11 0.11 0 0 1 0.96 5.159 Q 0.952 5.16 0.942 5.16 A 0.102 0.102 0 0 1 0.916 5.157 A 0.072 0.072 0 0 1 0.881 5.137 A 0.077 0.077 0 0 1 0.863 5.103 Q 0.859 5.089 0.859 5.072 A 0.137 0.137 0 0 1 0.861 5.045 Q 0.865 5.028 0.873 5.015 A 0.078 0.078 0 0 1 0.879 5.006 A 0.067 0.067 0 0 1 0.928 4.981 A 0.092 0.092 0 0 1 0.935 4.981 A 0.08 0.08 0 0 1 0.957 4.984 A 0.061 0.061 0 0 1 0.986 5.002 A 0.073 0.073 0 0 1 1.003 5.036 A 0.107 0.107 0 0 1 1.005 5.059 Z M 1.19 5.042 Q 1.19 5.101 1.172 5.131 A 0.061 0.061 0 0 1 1.127 5.159 A 0.089 0.089 0 0 1 1.114 5.16 Q 1.078 5.16 1.059 5.132 A 0.08 0.08 0 0 1 1.057 5.13 A 0.103 0.103 0 0 1 1.046 5.104 Q 1.038 5.079 1.038 5.044 A 0.345 0.345 0 0 1 1.038 5.042 A 0.309 0.309 0 0 1 1.039 5.01 Q 1.043 4.973 1.057 4.952 A 0.061 0.061 0 0 1 1.101 4.924 A 0.089 0.089 0 0 1 1.114 4.923 A 0.073 0.073 0 0 1 1.14 4.927 Q 1.158 4.934 1.17 4.952 A 0.08 0.08 0 0 1 1.171 4.953 A 0.105 0.105 0 0 1 1.183 4.98 Q 1.187 4.993 1.189 5.009 A 0.275 0.275 0 0 1 1.19 5.042 Z M 1.064 5.042 A 0.342 0.342 0 0 0 1.065 5.066 Q 1.067 5.09 1.073 5.106 A 0.07 0.07 0 0 0 1.076 5.115 Q 1.088 5.138 1.114 5.138 A 0.046 0.046 0 0 0 1.131 5.135 Q 1.142 5.13 1.15 5.119 A 0.054 0.054 0 0 0 1.152 5.114 A 0.084 0.084 0 0 0 1.158 5.098 Q 1.164 5.076 1.164 5.042 Q 1.164 4.992 1.152 4.969 Q 1.14 4.946 1.114 4.946 A 0.046 0.046 0 0 0 1.098 4.948 Q 1.086 4.953 1.079 4.964 A 0.053 0.053 0 0 0 1.076 4.968 A 0.079 0.079 0 0 0 1.07 4.984 Q 1.066 5.001 1.065 5.026 A 0.372 0.372 0 0 0 1.064 5.042 Z M 0.615 4.984 L 0.615 5.157 L 0.589 5.157 L 0.589 4.984 L 0.615 4.984 Z M 0.787 5.077 L 0.787 5.071 A 0.175 0.175 0 0 0 0.786 5.053 Q 0.784 5.035 0.778 5.024 A 0.039 0.039 0 0 0 0.775 5.019 Q 0.764 5.005 0.741 5.003 A 0.084 0.084 0 0 0 0.736 5.003 A 0.047 0.047 0 0 0 0.72 5.006 A 0.039 0.039 0 0 0 0.7 5.021 A 0.062 0.062 0 0 0 0.692 5.038 Q 0.69 5.046 0.689 5.056 A 0.146 0.146 0 0 0 0.688 5.071 A 0.145 0.145 0 0 0 0.689 5.09 Q 0.69 5.099 0.693 5.106 A 0.055 0.055 0 0 0 0.7 5.121 Q 0.712 5.138 0.736 5.138 A 0.078 0.078 0 0 0 0.75 5.137 Q 0.758 5.136 0.764 5.132 A 0.035 0.035 0 0 0 0.775 5.124 A 0.043 0.043 0 0 0 0.782 5.111 Q 0.786 5.099 0.787 5.081 A 0.166 0.166 0 0 0 0.787 5.077 Z M 0.887 5.054 L 0.977 5.054 A 0.089 0.089 0 0 0 0.976 5.04 Q 0.975 5.032 0.972 5.026 A 0.04 0.04 0 0 0 0.966 5.016 A 0.036 0.036 0 0 0 0.944 5.004 A 0.054 0.054 0 0 0 0.934 5.003 Q 0.914 5.003 0.901 5.017 Q 0.89 5.029 0.887 5.05 A 0.099 0.099 0 0 0 0.887 5.054 Z M 0.587 4.933 A 0.029 0.029 0 0 0 0.587 4.937 A 0.031 0.031 0 0 0 0.587 4.94 A 0.014 0.014 0 0 0 0.591 4.951 A 0.015 0.015 0 0 0 0.597 4.954 A 0.017 0.017 0 0 0 0.602 4.955 A 0.015 0.015 0 0 0 0.613 4.951 Q 0.616 4.948 0.617 4.942 A 0.027 0.027 0 0 0 0.618 4.937 Q 0.618 4.933 0.617 4.93 A 0.013 0.013 0 0 0 0.613 4.924 A 0.015 0.015 0 0 0 0.602 4.92 A 0.02 0.02 0 0 0 0.601 4.92 A 0.015 0.015 0 0 0 0.591 4.924 Q 0.588 4.927 0.587 4.933 Z M 0.588 4.945 Q 0.587 4.943 0.587 4.94" id="side0_labelLayer" stroke="#777777" fill="#777777" style="stroke:#777777;fill:#777777" vector-effect="non-scaling-stroke"/><path d="M 2.411 6.662 L 2.411 6.555 L 2.682 6.555 L 2.682 6.662 L 2.694 6.673 L 3.019 6.673 L 3.03 6.662 L 3.03 6.555 L 3.343 6.555 L 3.354 6.544 L 3.354 6.112 L 3.343 6.101 L 3.069 6.101 L 3.069 5.829 L 3.343 5.829 L 3.354 5.818 L 3.354 5.493 L 3.343 5.482 L 3.069 5.482 L 3.069 5.21 L 3.343 5.21 L 3.354 5.199 L 3.354 4.873 L 3.343 4.862 L 3.069 4.862 L 3.069 4.59 L 3.343 4.59 L 3.354 4.579 L 3.354 4.254 L 3.343 4.243 L 3.069 4.243 L 3.069 3.971 L 3.343 3.971 L 3.354 3.96 L 3.354 3.528 L 3.343 3.517 L 3.03 3.517 L 3.03 3.41 L 3.019 3.399 L 2.694 3.399 L 2.682 3.41 L 2.682 3.517 L 2.411 3.517 L 2.411 3.41 L 2.4 3.399 L 2.074 3.399 L 2.063 3.41 L 2.063 3.517 L 2.035 3.517 L 2.024 3.528 L 2.024 3.933 L 1.751 3.933 L 1.739 3.944 L 1.739 4.269 L 1.751 4.281 L 2.024 4.281 L 2.024 4.552 L 1.751 4.552 L 1.739 4.564 L 1.739 4.889 L 1.751 4.9 L 2.024 4.9 L 2.024 5.172 L 1.751 5.172 L 1.739 5.183 L 1.739 5.508 L 1.751 5.52 L 2.024 5.52 L 2.024 5.791 L 1.751 5.791 L 1.739 5.803 L 1.739 6.128 L 1.751 6.139 L 2.024 6.139 L 2.024 6.544 L 2.035 6.555 L 2.063 6.555 L 2.063 6.662 L 2.074 6.673 L 2.4 6.673 L 2.411 6.662 Z" id="side2_outsideCutPath" stroke="#FF0000" stroke-width="0.1" style="stroke:#FF0000;stroke-width:0.1" vector-effect="non-scaling-stroke"/><path d="M 2.929 5.133 L 2.929 5.157 L 2.778 5.157 L 2.778 5.135 L 2.838 5.074 A 1.154 1.154 0 0 0 2.85 5.061 Q 2.868 5.043 2.875 5.033 A 0.119 0.119 0 0 0 2.883 5.022 A 0.088 0.088 0 0 0 2.888 5.01 Q 2.893 4.999 2.893 4.986 A 0.049 0.049 0 0 0 2.891 4.973 A 0.035 0.035 0 0 0 2.881 4.956 Q 2.871 4.946 2.852 4.946 A 0.071 0.071 0 0 0 2.85 4.946 Q 2.836 4.946 2.823 4.95 Q 2.814 4.954 2.803 4.961 A 0.164 0.164 0 0 0 2.795 4.968 L 2.781 4.95 A 0.119 0.119 0 0 1 2.812 4.931 A 0.1 0.1 0 0 1 2.85 4.923 Q 2.876 4.923 2.893 4.934 A 0.057 0.057 0 0 1 2.901 4.94 A 0.055 0.055 0 0 1 2.919 4.975 A 0.077 0.077 0 0 1 2.919 4.985 A 0.082 0.082 0 0 1 2.913 5.017 A 0.103 0.103 0 0 1 2.907 5.028 A 0.134 0.134 0 0 1 2.898 5.042 Q 2.887 5.056 2.87 5.074 A 0.589 0.589 0 0 1 2.861 5.082 L 2.811 5.132 L 2.811 5.133 L 2.929 5.133 Z M 2.164 5.149 L 2.164 5.125 A 0.13 0.13 0 0 0 2.191 5.135 A 0.118 0.118 0 0 0 2.21 5.138 A 0.101 0.101 0 0 0 2.219 5.139 A 0.103 0.103 0 0 0 2.23 5.138 Q 2.236 5.137 2.241 5.136 A 0.04 0.04 0 0 0 2.25 5.132 A 0.023 0.023 0 0 0 2.258 5.125 Q 2.261 5.12 2.261 5.112 A 0.021 0.021 0 0 0 2.255 5.097 A 0.03 0.03 0 0 0 2.252 5.095 A 0.047 0.047 0 0 0 2.247 5.091 Q 2.241 5.087 2.231 5.083 A 0.319 0.319 0 0 0 2.219 5.078 A 0.393 0.393 0 0 1 2.207 5.074 Q 2.196 5.069 2.189 5.065 A 0.071 0.071 0 0 1 2.184 5.062 Q 2.174 5.056 2.169 5.047 Q 2.164 5.039 2.164 5.027 A 0.042 0.042 0 0 1 2.167 5.01 Q 2.171 5 2.181 4.993 A 0.06 0.06 0 0 1 2.199 4.985 Q 2.207 4.983 2.217 4.982 A 0.129 0.129 0 0 1 2.228 4.981 A 0.138 0.138 0 0 1 2.283 4.992 L 2.274 5.014 Q 2.252 5.005 2.234 5.003 A 0.089 0.089 0 0 0 2.226 5.003 Q 2.208 5.003 2.198 5.009 Q 2.189 5.015 2.189 5.025 A 0.023 0.023 0 0 0 2.19 5.031 A 0.018 0.018 0 0 0 2.192 5.037 Q 2.195 5.04 2.2 5.044 A 0.055 0.055 0 0 0 2.204 5.046 A 0.076 0.076 0 0 0 2.209 5.048 Q 2.217 5.053 2.234 5.059 Q 2.265 5.07 2.276 5.081 A 0.039 0.039 0 0 1 2.286 5.106 A 0.052 0.052 0 0 1 2.286 5.11 A 0.052 0.052 0 0 1 2.284 5.126 A 0.042 0.042 0 0 1 2.268 5.147 Q 2.254 5.157 2.232 5.16 A 0.139 0.139 0 0 1 2.218 5.16 A 0.176 0.176 0 0 1 2.198 5.159 Q 2.178 5.157 2.164 5.149 Z M 2.532 5.157 L 2.528 5.134 L 2.527 5.134 A 0.059 0.059 0 0 1 2.484 5.16 A 0.088 0.088 0 0 1 2.473 5.16 A 0.079 0.079 0 0 1 2.45 5.157 A 0.06 0.06 0 0 1 2.42 5.137 A 0.077 0.077 0 0 1 2.406 5.111 Q 2.401 5.094 2.401 5.071 A 0.155 0.155 0 0 1 2.403 5.045 Q 2.405 5.031 2.41 5.02 A 0.074 0.074 0 0 1 2.42 5.005 A 0.062 0.062 0 0 1 2.464 4.982 A 0.088 0.088 0 0 1 2.473 4.981 A 0.077 0.077 0 0 1 2.496 4.984 A 0.059 0.059 0 0 1 2.527 5.007 L 2.529 5.007 L 2.528 4.994 L 2.527 4.982 L 2.527 4.912 L 2.553 4.912 L 2.553 5.157 L 2.532 5.157 Z M 2.745 5.059 L 2.745 5.075 L 2.626 5.075 A 0.105 0.105 0 0 0 2.628 5.093 Q 2.631 5.111 2.641 5.122 A 0.048 0.048 0 0 0 2.666 5.136 A 0.072 0.072 0 0 0 2.682 5.137 A 0.138 0.138 0 0 0 2.734 5.127 A 0.158 0.158 0 0 0 2.738 5.126 L 2.738 5.149 A 0.157 0.157 0 0 1 2.723 5.154 A 0.12 0.12 0 0 1 2.711 5.158 A 0.11 0.11 0 0 1 2.701 5.159 Q 2.692 5.16 2.682 5.16 A 0.102 0.102 0 0 1 2.656 5.157 A 0.072 0.072 0 0 1 2.621 5.137 A 0.077 0.077 0 0 1 2.603 5.103 Q 2.599 5.089 2.599 5.072 A 0.137 0.137 0 0 1 2.601 5.045 Q 2.605 5.028 2.613 5.015 A 0.078 0.078 0 0 1 2.62 5.006 A 0.067 0.067 0 0 1 2.668 4.981 A 0.092 0.092 0 0 1 2.675 4.981 A 0.08 0.08 0 0 1 2.697 4.984 A 0.061 0.061 0 0 1 2.726 5.002 A 0.073 0.073 0 0 1 2.743 5.036 A 0.107 0.107 0 0 1 2.745 5.059 Z M 2.355 4.984 L 2.355 5.157 L 2.329 5.157 L 2.329 4.984 L 2.355 4.984 Z M 2.527 5.077 L 2.527 5.071 A 0.175 0.175 0 0 0 2.526 5.053 Q 2.524 5.035 2.518 5.024 A 0.039 0.039 0 0 0 2.515 5.019 Q 2.504 5.005 2.481 5.003 A 0.084 0.084 0 0 0 2.476 5.003 A 0.047 0.047 0 0 0 2.46 5.006 A 0.039 0.039 0 0 0 2.44 5.021 A 0.062 0.062 0 0 0 2.433 5.038 Q 2.43 5.046 2.429 5.056 A 0.146 0.146 0 0 0 2.428 5.071 A 0.145 0.145 0 0 0 2.429 5.09 Q 2.43 5.099 2.433 5.106 A 0.055 0.055 0 0 0 2.44 5.121 Q 2.452 5.138 2.476 5.138 A 0.078 0.078 0 0 0 2.49 5.137 Q 2.498 5.136 2.504 5.132 A 0.035 0.035 0 0 0 2.515 5.124 A 0.043 0.043 0 0 0 2.522 5.111 Q 2.526 5.099 2.527 5.081 A 0.166 0.166 0 0 0 2.527 5.077 Z M 2.627 5.054 L 2.717 5.054 A 0.089 0.089 0 0 0 2.716 5.04 Q 2.715 5.032 2.712 5.026 A 0.04 0.04 0 0 0 2.706 5.016 A 0.036 0.036 0 0 0 2.684 5.004 A 0.054 0.054 0 0 0 2.674 5.003 Q 2.654 5.003 2.641 5.017 Q 2.63 5.029 2.627 5.05 A 0.099 0.099 0 0 0 2.627 5.054 Z M 2.327 4.933 A 0.029 0.029 0 0 0 2.327 4.937 A 0.031 0.031 0 0 0 2.327 4.94 A 0.014 0.014 0 0 0 2.331 4.951 A 0.015 0.015 0 0 0 2.337 4.954 A 0.017 0.017 0 0 0 2.342 4.955 A 0.015 0.015 0 0 0 2.353 4.951 Q 2.356 4.948 2.357 4.942 A 0.027 0.027 0 0 0 2.358 4.937 Q 2.358 4.933 2.357 4.93 A 0.013 0.013 0 0 0 2.353 4.924 A 0.015 0.015 0 0 0 2.342 4.92 A 0.02 0.02 0 0 0 2.341 4.92 A 0.015 0.015 0 0 0 2.331 4.924 Q 2.328 4.927 2.327 4.933 Z M 2.328 4.945 Q 2.327 4.943 2.327 4.94" id="side2_labelLayer" stroke="#777777" fill="#777777" style="stroke:#777777;fill:#777777" vector-effect="non-scaling-stroke"/><path d="M 4.15 6.662 L 4.15 6.555 L 4.422 6.555 L 4.422 6.662 L 4.433 6.673 L 4.758 6.673 L 4.77 6.662 L 4.77 6.555 L 5.082 6.555 L 5.093 6.544 L 5.093 6.112 L 5.082 6.101 L 4.808 6.101 L 4.808 5.829 L 5.082 5.829 L 5.093 5.818 L 5.093 5.493 L 5.082 5.482 L 4.808 5.482 L 4.808 5.21 L 5.082 5.21 L 5.093 5.199 L 5.093 4.873 L 5.082 4.862 L 4.808 4.862 L 4.808 4.59 L 5.082 4.59 L 5.093 4.579 L 5.093 4.254 L 5.082 4.243 L 4.808 4.243 L 4.808 3.971 L 5.082 3.971 L 5.093 3.96 L 5.093 3.528 L 5.082 3.517 L 4.77 3.517 L 4.77 3.41 L 4.758 3.399 L 4.433 3.399 L 4.422 3.41 L 4.422 3.517 L 4.15 3.517 L 4.15 3.41 L 4.139 3.399 L 3.813 3.399 L 3.802 3.41 L 3.802 3.517 L 3.775 3.517 L 3.764 3.528 L 3.764 3.933 L 3.49 3.933 L 3.479 3.944 L 3.479 4.269 L 3.49 4.281 L 3.764 4.281 L 3.764 4.552 L 3.49 4.552 L 3.479 4.564 L 3.479 4.889 L 3.49 4.9 L 3.764 4.9 L 3.764 5.172 L 3.49 5.172 L 3.479 5.183 L 3.479 5.508 L 3.49 5.52 L 3.764 5.52 L 3.764 5.791 L 3.49 5.791 L 3.479 5.803 L 3.479 6.128 L 3.49 6.139 L 3.764 6.139 L 3.764 6.544 L 3.775 6.555 L 3.802 6.555 L 3.802 6.662 L 3.813 6.673 L 4.139 6.673 L 4.15 6.662 Z" id="side4_outsideCutPath" stroke="#FF0000" stroke-width="0.1" style="stroke:#FF0000;stroke-width:0.1" vector-effect="non-scaling-stroke"/><path d="M 3.898 5.149 L 3.898 5.125 A 0.13 0.13 0 0 0 3.925 5.135 A 0.118 0.118 0 0 0 3.944 5.138 A 0.101 0.101 0 0 0 3.953 5.139 A 0.103 0.103 0 0 0 3.964 5.138 Q 3.97 5.137 3.975 5.136 A 0.04 0.04 0 0 0 3.984 5.132 A 0.023 0.023 0 0 0 3.992 5.125 Q 3.995 5.12 3.995 5.112 A 0.021 0.021 0 0 0 3.989 5.097 A 0.03 0.03 0 0 0 3.986 5.095 A 0.047 0.047 0 0 0 3.981 5.091 Q 3.975 5.087 3.965 5.083 A 0.319 0.319 0 0 0 3.953 5.078 A 0.393 0.393 0 0 1 3.941 5.074 Q 3.93 5.069 3.923 5.065 A 0.071 0.071 0 0 1 3.918 5.062 Q 3.908 5.056 3.903 5.047 Q 3.898 5.039 3.898 5.027 A 0.042 0.042 0 0 1 3.901 5.01 Q 3.905 5 3.915 4.993 A 0.06 0.06 0 0 1 3.933 4.985 Q 3.941 4.983 3.95 4.982 A 0.129 0.129 0 0 1 3.962 4.981 A 0.138 0.138 0 0 1 4.017 4.992 L 4.007 5.014 Q 3.986 5.005 3.968 5.003 A 0.089 0.089 0 0 0 3.96 5.003 Q 3.942 5.003 3.932 5.009 Q 3.923 5.015 3.923 5.025 A 0.023 0.023 0 0 0 3.924 5.031 A 0.018 0.018 0 0 0 3.926 5.037 Q 3.929 5.04 3.934 5.044 A 0.055 0.055 0 0 0 3.938 5.046 A 0.076 0.076 0 0 0 3.942 5.048 Q 3.951 5.053 3.968 5.059 Q 3.999 5.07 4.01 5.081 A 0.039 0.039 0 0 1 4.02 5.106 A 0.052 0.052 0 0 1 4.02 5.11 A 0.052 0.052 0 0 1 4.018 5.126 A 0.042 0.042 0 0 1 4.002 5.147 Q 3.988 5.157 3.966 5.16 A 0.139 0.139 0 0 1 3.952 5.16 A 0.176 0.176 0 0 1 3.932 5.159 Q 3.912 5.157 3.898 5.149 Z M 4.266 5.157 L 4.262 5.134 L 4.261 5.134 A 0.059 0.059 0 0 1 4.218 5.16 A 0.088 0.088 0 0 1 4.207 5.16 A 0.079 0.079 0 0 1 4.184 5.157 A 0.06 0.06 0 0 1 4.154 5.137 A 0.077 0.077 0 0 1 4.14 5.111 Q 4.135 5.094 4.135 5.071 A 0.155 0.155 0 0 1 4.137 5.045 Q 4.139 5.031 4.144 5.02 A 0.074 0.074 0 0 1 4.154 5.005 A 0.062 0.062 0 0 1 4.198 4.982 A 0.088 0.088 0 0 1 4.207 4.981 A 0.077 0.077 0 0 1 4.23 4.984 A 0.059 0.059 0 0 1 4.261 5.007 L 4.263 5.007 L 4.261 4.994 L 4.261 4.982 L 4.261 4.912 L 4.287 4.912 L 4.287 5.157 L 4.266 5.157 Z M 4.479 5.059 L 4.479 5.075 L 4.36 5.075 A 0.105 0.105 0 0 0 4.362 5.093 Q 4.365 5.111 4.375 5.122 A 0.048 0.048 0 0 0 4.4 5.136 A 0.072 0.072 0 0 0 4.416 5.137 A 0.138 0.138 0 0 0 4.468 5.127 A 0.158 0.158 0 0 0 4.472 5.126 L 4.472 5.149 A 0.157 0.157 0 0 1 4.457 5.154 A 0.12 0.12 0 0 1 4.445 5.158 A 0.11 0.11 0 0 1 4.434 5.159 Q 4.426 5.16 4.416 5.16 A 0.102 0.102 0 0 1 4.39 5.157 A 0.072 0.072 0 0 1 4.355 5.137 A 0.077 0.077 0 0 1 4.337 5.103 Q 4.333 5.089 4.333 5.072 A 0.137 0.137 0 0 1 4.335 5.045 Q 4.339 5.028 4.347 5.015 A 0.078 0.078 0 0 1 4.353 5.006 A 0.067 0.067 0 0 1 4.402 4.981 A 0.092 0.092 0 0 1 4.409 4.981 A 0.08 0.08 0 0 1 4.431 4.984 A 0.061 0.061 0 0 1 4.46 5.002 A 0.073 0.073 0 0 1 4.477 5.036 A 0.107 0.107 0 0 1 4.479 5.059 Z M 4.674 5.08 L 4.674 5.104 L 4.64 5.104 L 4.64 5.157 L 4.615 5.157 L 4.615 5.104 L 4.503 5.104 L 4.503 5.081 L 4.612 4.925 L 4.64 4.925 L 4.64 5.08 L 4.674 5.08 Z M 4.089 4.984 L 4.089 5.157 L 4.063 5.157 L 4.063 4.984 L 4.089 4.984 Z M 4.261 5.077 L 4.261 5.071 A 0.175 0.175 0 0 0 4.26 5.053 Q 4.258 5.035 4.252 5.024 A 0.039 0.039 0 0 0 4.249 5.019 Q 4.238 5.005 4.215 5.003 A 0.084 0.084 0 0 0 4.21 5.003 A 0.047 0.047 0 0 0 4.194 5.006 A 0.039 0.039 0 0 0 4.174 5.021 A 0.062 0.062 0 0 0 4.166 5.038 Q 4.164 5.046 4.163 5.056 A 0.146 0.146 0 0 0 4.162 5.071 A 0.145 0.145 0 0 0 4.163 5.09 Q 4.164 5.099 4.167 5.106 A 0.055 0.055 0 0 0 4.174 5.121 Q 4.186 5.138 4.21 5.138 A 0.078 0.078 0 0 0 4.224 5.137 Q 4.232 5.136 4.238 5.132 A 0.035 0.035 0 0 0 4.249 5.124 A 0.043 0.043 0 0 0 4.256 5.111 Q 4.26 5.099 4.261 5.081 A 0.166 0.166 0 0 0 4.261 5.077 Z M 4.529 5.08 L 4.615 5.08 L 4.615 5.004 Q 4.615 4.983 4.616 4.956 A 1.21 1.21 0 0 1 4.616 4.953 L 4.615 4.953 A 0.325 0.325 0 0 1 4.61 4.963 Q 4.607 4.969 4.604 4.973 A 0.156 0.156 0 0 1 4.601 4.978 L 4.529 5.08 Z M 4.361 5.054 L 4.451 5.054 A 0.089 0.089 0 0 0 4.45 5.04 Q 4.449 5.032 4.446 5.026 A 0.04 0.04 0 0 0 4.44 5.016 A 0.036 0.036 0 0 0 4.418 5.004 A 0.054 0.054 0 0 0 4.408 5.003 Q 4.388 5.003 4.375 5.017 Q 4.364 5.029 4.361 5.05 A 0.099 0.099 0 0 0 4.361 5.054 Z M 4.061 4.933 A 0.029 0.029 0 0 0 4.061 4.937 A 0.031 0.031 0 0 0 4.061 4.94 A 0.014 0.014 0 0 0 4.065 4.951 A 0.015 0.015 0 0 0 4.071 4.954 A 0.017 0.017 0 0 0 4.076 4.955 A 0.015 0.015 0 0 0 4.087 4.951 Q 4.09 4.948 4.091 4.942 A 0.027 0.027 0 0 0 4.092 4.937 Q 4.092 4.933 4.091 4.93 A 0.013 0.013 0 0 0 4.087 4.924 A 0.015 0.015 0 0 0 4.076 4.92 A 0.02 0.02 0 0 0 4.075 4.92 A 0.015 0.015 0 0 0 4.065 4.924 Q 4.062 4.927 4.061 4.933 Z M 4.062 4.945 Q 4.061 4.943 4.061 4.94" id="side4_labelLayer" stroke="#777777" fill="#777777" style="stroke:#777777;fill:#777777" vector-effect="non-scaling-stroke"/><path d="M 5.89 6.662 L 5.89 6.555 L 6.161 6.555 L 6.161 6.662 L 6.172 6.673 L 6.498 6.673 L 6.509 6.662 L 6.509 6.555 L 6.821 6.555 L 6.833 6.544 L 6.833 6.112 L 6.821 6.101 L 6.548 6.101 L 6.548 5.829 L 6.821 5.829 L 6.833 5.818 L 6.833 5.493 L 6.821 5.482 L 6.548 5.482 L 6.548 5.21 L 6.821 5.21 L 6.833 5.199 L 6.833 4.873 L 6.821 4.862 L 6.548 4.862 L 6.548 4.59 L 6.821 4.59 L 6.833 4.579 L 6.833 4.254 L 6.821 4.243 L 6.548 4.243 L 6.548 3.971 L 6.821 3.971 L 6.833 3.96 L 6.833 3.528 L 6.821 3.517 L 6.509 3.517 L 6.509 3.41 L 6.498 3.399 L 6.172 3.399 L 6.161 3.41 L 6.161 3.517 L 5.89 3.517 L 5.89 3.41 L 5.878 3.399 L 5.553 3.399 L 5.542 3.41 L 5.542 3.517 L 5.514 3.517 L 5.503 3.528 L 5.503 3.933 L 5.229 3.933 L 5.218 3.944 L 5.218 4.269 L 5.229 4.281 L 5.503 4.281 L 5.503 4.552 L 5.229 4.552 L 5.218 4.564 L 5.218 4.889 L 5.229 4.9 L 5.503 4.9 L 5.503 5.172 L 5.229 5.172 L 5.218 5.183 L 5.218 5.508 L 5.229 5.52 L 5.503 5.52 L 5.503 5.791 L 5.229 5.791 L 5.218 5.803 L 5.218 6.128 L 5.229 6.139 L 5.503 6.139 L 5.503 6.544 L 5.514 6.555 L 5.542 6.555 L 5.542 6.662 L 5.553 6.673 L 5.878 6.673 L 5.89 6.662 Z" id="side6_outsideCutPath" stroke="#FF0000" stroke-width="0.1" style="stroke:#FF0000;stroke-width:0.1" vector-effect="non-scaling-stroke"/><path d="M 6.391 4.926 L 6.391 4.949 A 0.078 0.078 0 0 0 6.377 4.946 A 0.106 0.106 0 0 0 6.363 4.945 A 0.095 0.095 0 0 0 6.34 4.947 A 0.063 0.063 0 0 0 6.307 4.968 A 0.074 0.074 0 0 0 6.294 4.989 Q 6.286 5.01 6.285 5.041 L 6.287 5.041 A 0.057 0.057 0 0 1 6.328 5.014 A 0.089 0.089 0 0 1 6.342 5.013 A 0.083 0.083 0 0 1 6.363 5.016 A 0.058 0.058 0 0 1 6.391 5.032 A 0.063 0.063 0 0 1 6.406 5.062 A 0.093 0.093 0 0 1 6.409 5.083 Q 6.409 5.114 6.394 5.134 A 0.064 0.064 0 0 1 6.389 5.14 A 0.065 0.065 0 0 1 6.352 5.159 A 0.094 0.094 0 0 1 6.336 5.16 A 0.077 0.077 0 0 1 6.309 5.156 A 0.067 0.067 0 0 1 6.279 5.133 A 0.091 0.091 0 0 1 6.264 5.104 Q 6.26 5.091 6.259 5.075 A 0.194 0.194 0 0 1 6.258 5.059 Q 6.258 4.991 6.284 4.958 A 0.085 0.085 0 0 1 6.285 4.957 A 0.085 0.085 0 0 1 6.337 4.926 A 0.131 0.131 0 0 1 6.363 4.923 A 0.173 0.173 0 0 1 6.373 4.924 Q 6.383 4.924 6.39 4.926 Z M 5.642 5.149 L 5.642 5.125 A 0.13 0.13 0 0 0 5.669 5.135 A 0.118 0.118 0 0 0 5.688 5.138 A 0.101 0.101 0 0 0 5.697 5.139 A 0.103 0.103 0 0 0 5.708 5.138 Q 5.714 5.137 5.719 5.136 A 0.04 0.04 0 0 0 5.728 5.132 A 0.023 0.023 0 0 0 5.736 5.125 Q 5.739 5.12 5.739 5.112 A 0.021 0.021 0 0 0 5.733 5.097 A 0.03 0.03 0 0 0 5.73 5.095 A 0.047 0.047 0 0 0 5.725 5.091 Q 5.719 5.087 5.709 5.083 A 0.319 0.319 0 0 0 5.697 5.078 A 0.393 0.393 0 0 1 5.685 5.074 Q 5.674 5.069 5.667 5.065 A 0.071 0.071 0 0 1 5.662 5.062 Q 5.652 5.056 5.647 5.047 Q 5.642 5.039 5.642 5.027 A 0.042 0.042 0 0 1 5.645 5.01 Q 5.649 5 5.659 4.993 A 0.06 0.06 0 0 1 5.677 4.985 Q 5.685 4.983 5.695 4.982 A 0.129 0.129 0 0 1 5.706 4.981 A 0.138 0.138 0 0 1 5.761 4.992 L 5.752 5.014 Q 5.73 5.005 5.712 5.003 A 0.089 0.089 0 0 0 5.704 5.003 Q 5.686 5.003 5.676 5.009 Q 5.667 5.015 5.667 5.025 A 0.023 0.023 0 0 0 5.668 5.031 A 0.018 0.018 0 0 0 5.67 5.037 Q 5.673 5.04 5.678 5.044 A 0.055 0.055 0 0 0 5.682 5.046 A 0.076 0.076 0 0 0 5.687 5.048 Q 5.695 5.053 5.712 5.059 Q 5.743 5.07 5.754 5.081 A 0.039 0.039 0 0 1 5.764 5.106 A 0.052 0.052 0 0 1 5.764 5.11 A 0.052 0.052 0 0 1 5.762 5.126 A 0.042 0.042 0 0 1 5.746 5.147 Q 5.732 5.157 5.71 5.16 A 0.139 0.139 0 0 1 5.696 5.16 A 0.176 0.176 0 0 1 5.676 5.159 Q 5.656 5.157 5.642 5.149 Z M 6.01 5.157 L 6.006 5.134 L 6.005 5.134 A 0.059 0.059 0 0 1 5.962 5.16 A 0.088 0.088 0 0 1 5.951 5.16 A 0.079 0.079 0 0 1 5.928 5.157 A 0.06 0.06 0 0 1 5.898 5.137 A 0.077 0.077 0 0 1 5.884 5.111 Q 5.879 5.094 5.879 5.071 A 0.155 0.155 0 0 1 5.881 5.045 Q 5.883 5.031 5.888 5.02 A 0.074 0.074 0 0 1 5.898 5.005 A 0.062 0.062 0 0 1 5.942 4.982 A 0.088 0.088 0 0 1 5.951 4.981 A 0.077 0.077 0 0 1 5.974 4.984 A 0.059 0.059 0 0 1 6.005 5.007 L 6.007 5.007 L 6.006 4.994 L 6.005 4.982 L 6.005 4.912 L 6.031 4.912 L 6.031 5.157 L 6.01 5.157 Z M 6.223 5.059 L 6.223 5.075 L 6.104 5.075 A 0.105 0.105 0 0 0 6.106 5.093 Q 6.109 5.111 6.119 5.122 A 0.048 0.048 0 0 0 6.144 5.136 A 0.072 0.072 0 0 0 6.16 5.137 A 0.138 0.138 0 0 0 6.212 5.127 A 0.158 0.158 0 0 0 6.216 5.126 L 6.216 5.149 A 0.157 0.157 0 0 1 6.201 5.154 A 0.12 0.12 0 0 1 6.189 5.158 A 0.11 0.11 0 0 1 6.179 5.159 Q 6.17 5.16 6.16 5.16 A 0.102 0.102 0 0 1 6.134 5.157 A 0.072 0.072 0 0 1 6.099 5.137 A 0.077 0.077 0 0 1 6.081 5.103 Q 6.077 5.089 6.077 5.072 A 0.137 0.137 0 0 1 6.079 5.045 Q 6.083 5.028 6.091 5.015 A 0.078 0.078 0 0 1 6.098 5.006 A 0.067 0.067 0 0 1 6.146 4.981 A 0.092 0.092 0 0 1 6.153 4.981 A 0.08 0.08 0 0 1 6.175 4.984 A 0.061 0.061 0 0 1 6.204 5.002 A 0.073 0.073 0 0 1 6.221 5.036 A 0.107 0.107 0 0 1 6.223 5.059 Z M 5.833 4.984 L 5.833 5.157 L 5.807 5.157 L 5.807 4.984 L 5.833 4.984 Z M 6.005 5.077 L 6.005 5.071 A 0.175 0.175 0 0 0 6.004 5.053 Q 6.002 5.035 5.996 5.024 A 0.039 0.039 0 0 0 5.993 5.019 Q 5.982 5.005 5.959 5.003 A 0.084 0.084 0 0 0 5.954 5.003 A 0.047 0.047 0 0 0 5.938 5.006 A 0.039 0.039 0 0 0 5.918 5.021 A 0.062 0.062 0 0 0 5.911 5.038 Q 5.908 5.046 5.907 5.056 A 0.146 0.146 0 0 0 5.906 5.071 A 0.145 0.145 0 0 0 5.907 5.09 Q 5.908 5.099 5.911 5.106 A 0.055 0.055 0 0 0 5.918 5.121 Q 5.93 5.138 5.954 5.138 A 0.078 0.078 0 0 0 5.968 5.137 Q 5.976 5.136 5.982 5.132 A 0.035 0.035 0 0 0 5.993 5.124 A 0.043 0.043 0 0 0 6 5.111 Q 6.004 5.099 6.005 5.081 A 0.166 0.166 0 0 0 6.005 5.077 Z M 6.336 5.138 A 0.057 0.057 0 0 0 6.35 5.136 A 0.04 0.04 0 0 0 6.371 5.124 Q 6.381 5.112 6.383 5.092 A 0.101 0.101 0 0 0 6.383 5.083 A 0.073 0.073 0 0 0 6.382 5.069 Q 6.38 5.06 6.376 5.053 A 0.041 0.041 0 0 0 6.371 5.047 A 0.037 0.037 0 0 0 6.354 5.036 Q 6.348 5.035 6.34 5.034 A 0.075 0.075 0 0 0 6.337 5.034 A 0.06 0.06 0 0 0 6.319 5.037 A 0.055 0.055 0 0 0 6.311 5.04 A 0.049 0.049 0 0 0 6.296 5.051 A 0.047 0.047 0 0 0 6.292 5.056 Q 6.285 5.066 6.285 5.077 Q 6.285 5.094 6.292 5.108 Q 6.298 5.122 6.309 5.13 A 0.045 0.045 0 0 0 6.336 5.138 Z M 6.105 5.054 L 6.195 5.054 A 0.089 0.089 0 0 0 6.194 5.04 Q 6.193 5.032 6.19 5.026 A 0.04 0.04 0 0 0 6.184 5.016 A 0.036 0.036 0 0 0 6.162 5.004 A 0.054 0.054 0 0 0 6.152 5.003 Q 6.132 5.003 6.119 5.017 Q 6.108 5.029 6.105 5.05 A 0.099 0.099 0 0 0 6.105 5.054 Z M 5.805 4.933 A 0.029 0.029 0 0 0 5.805 4.937 A 0.031 0.031 0 0 0 5.805 4.94 A 0.014 0.014 0 0 0 5.809 4.951 A 0.015 0.015 0 0 0 5.815 4.954 A 0.017 0.017 0 0 0 5.82 4.955 A 0.015 0.015 0 0 0 5.831 4.951 Q 5.834 4.948 5.835 4.942 A 0.027 0.027 0 0 0 5.836 4.937 Q 5.836 4.933 5.835 4.93 A 0.013 0.013 0 0 0 5.831 4.924 A 0.015 0.015 0 0 0 5.82 4.92 A 0.02 0.02 0 0 0 5.819 4.92 A 0.015 0.015 0 0 0 5.809 4.924 Q 5.806 4.927 5.805 4.933 Z M 5.806 4.945 Q 5.805 4.943 5.805 4.94" id="side6_labelLayer" stroke="#777777" fill="#777777" style="stroke:#777777;fill:#777777" vector-effect="non-scaling-stroke"/><path d="M 2.318 3.271 L 2.472 3.118 L 2.472 3.102 L 2.396 3.026 L 2.588 2.834 L 2.664 2.91 L 2.679 2.91 L 2.91 2.679 L 2.91 2.664 L 2.834 2.588 L 3.026 2.396 L 3.102 2.472 L 3.118 2.472 L 3.271 2.318 L 3.274 2.311 L 3.274 2.094 L 3.263 2.083 L 3.156 2.083 L 3.156 1.811 L 3.263 1.811 L 3.274 1.8 L 3.274 1.474 L 3.263 1.463 L 3.156 1.463 L 3.156 1.191 L 3.263 1.191 L 3.274 1.18 L 3.274 0.963 L 3.271 0.956 L 3.118 0.802 L 3.102 0.802 L 3.026 0.878 L 2.834 0.686 L 2.91 0.61 L 2.91 0.595 L 2.679 0.364 L 2.664 0.364 L 2.588 0.44 L 2.396 0.248 L 2.472 0.172 L 2.472 0.156 L 2.318 0.003 L 2.311 0 L 2.094 0 L 2.083 0.011 L 2.083 0.118 L 1.811 0.118 L 1.811 0.011 L 1.8 0 L 1.474 0 L 1.463 0.011 L 1.463 0.118 L 1.191 0.118 L 1.191 0.011 L 1.18 0 L 0.963 0 L 0.956 0.003 L 0.802 0.156 L 0.802 0.172 L 0.878 0.248 L 0.686 0.44 L 0.61 0.364 L 0.595 0.364 L 0.364 0.595 L 0.364 0.61 L 0.44 0.686 L 0.248 0.878 L 0.172 0.802 L 0.156 0.802 L 0.003 0.956 L 0 0.963 L 0 1.18 L 0.011 1.191 L 0.118 1.191 L 0.118 1.463 L 0.011 1.463 L 0 1.474 L 0 1.8 L 0.011 1.811 L 0.118 1.811 L 0.118 2.083 L 0.011 2.083 L 0 2.094 L 0 2.311 L 0.003 2.318 L 0.156 2.472 L 0.172 2.472 L 0.248 2.396 L 0.44 2.588 L 0.364 2.664 L 0.364 2.679 L 0.595 2.91 L 0.61 2.91 L 0.686 2.834 L 0.878 3.026 L 0.802 3.102 L 0.802 3.118 L 0.956 3.271 L 0.963 3.274 L 1.18 3.274 L 1.191 3.263 L 1.191 3.156 L 1.463 3.156 L 1.463 3.263 L 1.474 3.274 L 1.8 3.274 L 1.811 3.263 L 1.811 3.156 L 2.083 3.156 L 2.083 3.263 L 2.094 3.274 L 2.311 3.274 L 2.318 3.271 Z" id="top_outsideCutPath" stroke="#FF0000" stroke-width="0.1" style="stroke:#FF0000;stroke-width:0.1" vector-effect="non-scaling-stroke"/><path d="M 1.872 1.729 L 1.868 1.729 A 0.502 0.502 0 0 1 1.872 1.766 A 0.421 0.421 0 0 1 1.872 1.787 L 1.872 1.931 L 1.819 1.931 L 1.819 1.424 L 1.862 1.424 L 1.87 1.472 L 1.872 1.472 A 0.143 0.143 0 0 1 1.893 1.448 A 0.11 0.11 0 0 1 1.92 1.43 A 0.133 0.133 0 0 1 1.958 1.419 A 0.172 0.172 0 0 1 1.982 1.417 A 0.163 0.163 0 0 1 2.028 1.423 A 0.12 0.12 0 0 1 2.09 1.465 A 0.159 0.159 0 0 1 2.117 1.518 Q 2.124 1.541 2.127 1.568 A 0.346 0.346 0 0 1 2.128 1.599 Q 2.128 1.685 2.089 1.733 A 0.126 0.126 0 0 1 2 1.78 A 0.18 0.18 0 0 1 1.982 1.781 A 0.161 0.161 0 0 1 1.942 1.776 A 0.14 0.14 0 0 1 1.92 1.768 A 0.118 0.118 0 0 1 1.872 1.729 Z M 1.354 1.73 L 1.354 1.771 A 0.052 0.052 0 0 1 1.348 1.773 Q 1.34 1.776 1.328 1.778 A 0.23 0.23 0 0 1 1.313 1.78 Q 1.305 1.781 1.298 1.781 A 0.139 0.139 0 0 1 1.257 1.775 Q 1.212 1.761 1.201 1.712 A 0.167 0.167 0 0 1 1.196 1.673 L 1.196 1.465 L 1.146 1.465 L 1.146 1.439 L 1.196 1.417 L 1.219 1.343 L 1.249 1.343 L 1.249 1.424 L 1.351 1.424 L 1.351 1.465 L 1.249 1.465 L 1.249 1.671 Q 1.249 1.693 1.257 1.708 A 0.051 0.051 0 0 0 1.265 1.72 A 0.049 0.049 0 0 0 1.295 1.736 A 0.071 0.071 0 0 0 1.306 1.737 A 0.174 0.174 0 0 0 1.331 1.735 A 0.162 0.162 0 0 0 1.333 1.735 A 0.287 0.287 0 0 0 1.341 1.733 Q 1.344 1.733 1.347 1.732 A 0.111 0.111 0 0 0 1.353 1.731 Z M 1.721 1.652 A 0.274 0.274 0 0 0 1.726 1.599 Q 1.726 1.515 1.683 1.466 A 0.139 0.139 0 0 0 1.618 1.425 A 0.178 0.178 0 0 0 1.566 1.417 A 0.206 0.206 0 0 0 1.529 1.421 A 0.14 0.14 0 0 0 1.447 1.465 Q 1.404 1.513 1.404 1.599 A 0.266 0.266 0 0 0 1.408 1.642 A 0.196 0.196 0 0 0 1.424 1.695 A 0.174 0.174 0 0 0 1.428 1.703 A 0.144 0.144 0 0 0 1.48 1.758 A 0.148 0.148 0 0 0 1.514 1.774 A 0.17 0.17 0 0 0 1.564 1.781 Q 1.64 1.781 1.683 1.732 Q 1.712 1.7 1.721 1.652 Z M 1.471 1.672 A 0.111 0.111 0 0 0 1.486 1.701 A 0.087 0.087 0 0 0 1.543 1.734 A 0.132 0.132 0 0 0 1.565 1.736 A 0.123 0.123 0 0 0 1.598 1.732 A 0.086 0.086 0 0 0 1.644 1.701 A 0.114 0.114 0 0 0 1.662 1.667 Q 1.671 1.638 1.671 1.599 A 0.265 0.265 0 0 0 1.669 1.561 Q 1.666 1.542 1.66 1.526 A 0.109 0.109 0 0 0 1.644 1.497 A 0.087 0.087 0 0 0 1.59 1.465 A 0.134 0.134 0 0 0 1.564 1.462 A 0.126 0.126 0 0 0 1.533 1.466 A 0.085 0.085 0 0 0 1.486 1.497 Q 1.467 1.521 1.461 1.563 A 0.28 0.28 0 0 0 1.459 1.599 Q 1.459 1.642 1.471 1.672 Z M 1.872 1.587 L 1.872 1.599 A 0.351 0.351 0 0 0 1.874 1.635 Q 1.878 1.671 1.89 1.694 A 0.08 0.08 0 0 0 1.897 1.704 Q 1.919 1.733 1.965 1.736 A 0.171 0.171 0 0 0 1.976 1.736 A 0.089 0.089 0 0 0 2.011 1.73 Q 2.031 1.721 2.045 1.702 A 0.105 0.105 0 0 0 2.047 1.699 A 0.128 0.128 0 0 0 2.065 1.662 Q 2.07 1.645 2.072 1.624 A 0.283 0.283 0 0 0 2.073 1.598 A 0.268 0.268 0 0 0 2.07 1.56 Q 2.065 1.522 2.047 1.497 A 0.083 0.083 0 0 0 1.987 1.463 A 0.114 0.114 0 0 0 1.975 1.462 A 0.153 0.153 0 0 0 1.946 1.465 Q 1.914 1.471 1.897 1.492 A 0.091 0.091 0 0 0 1.883 1.518 Q 1.873 1.545 1.872 1.587 Z" id="top_labelLayer" stroke="#777777" fill="#777777" style="stroke:#777777;fill:#777777" vector-effect="non-scaling-stroke"/><path d="M 5.717 3.271 L 5.871 3.118 L 5.871 3.102 L 5.795 3.026 L 5.987 2.834 L 6.063 2.91 L 6.078 2.91 L 6.309 2.679 L 6.309 2.664 L 6.233 2.588 L 6.425 2.396 L 6.501 2.472 L 6.517 2.472 L 6.67 2.318 L 6.673 2.311 L 6.673 2.094 L 6.662 2.083 L 6.555 2.083 L 6.555 1.811 L 6.662 1.811 L 6.673 1.8 L 6.673 1.474 L 6.662 1.463 L 6.555 1.463 L 6.555 1.191 L 6.662 1.191 L 6.673 1.18 L 6.673 0.963 L 6.67 0.956 L 6.517 0.802 L 6.501 0.802 L 6.425 0.878 L 6.233 0.686 L 6.309 0.61 L 6.309 0.595 L 6.078 0.364 L 6.063 0.364 L 5.987 0.44 L 5.795 0.248 L 5.871 0.172 L 5.871 0.156 L 5.717 0.003 L 5.71 0 L 5.493 0 L 5.482 0.011 L 5.482 0.118 L 5.21 0.118 L 5.21 0.011 L 5.199 0 L 4.873 0 L 4.862 0.011 L 4.862 0.118 L 4.59 0.118 L 4.59 0.011 L 4.579 0 L 4.362 0 L 4.355 0.003 L 4.201 0.156 L 4.201 0.172 L 4.277 0.248 L 4.085 0.44 L 4.009 0.364 L 3.994 0.364 L 3.763 0.595 L 3.763 0.61 L 3.839 0.686 L 3.647 0.878 L 3.571 0.802 L 3.555 0.802 L 3.402 0.956 L 3.399 0.963 L 3.399 1.18 L 3.41 1.191 L 3.517 1.191 L 3.517 1.463 L 3.41 1.463 L 3.399 1.474 L 3.399 1.8 L 3.41 1.811 L 3.517 1.811 L 3.517 2.083 L 3.41 2.083 L 3.399 2.094 L 3.399 2.311 L 3.402 2.318 L 3.555 2.472 L 3.571 2.472 L 3.647 2.396 L 3.839 2.588 L 3.763 2.664 L 3.763 2.679 L 3.994 2.91 L 4.009 2.91 L 4.085 2.834 L 4.277 3.026 L 4.201 3.102 L 4.201 3.118 L 4.355 3.271 L 4.362 3.274 L 4.579 3.274 L 4.59 3.263 L 4.59 3.156 L 4.862 3.156 L 4.862 3.263 L 4.873 3.274 L 5.199 3.274 L 5.21 3.263 L 5.21 3.156 L 5.482 3.156 L 5.482 3.263 L 5.493 3.274 L 5.71 3.274 L 5.717 3.271 Z" id="bottom_outsideCutPath" stroke="#FF0000" stroke-width="0.1" style="stroke:#FF0000;stroke-width:0.1" vector-effect="non-scaling-stroke"/><path d="M 6.113 1.883 L 6.06 1.883 L 6.06 1.655 A 0.157 0.157 0 0 0 6.059 1.632 Q 6.057 1.62 6.053 1.61 A 0.064 0.064 0 0 0 6.042 1.592 A 0.056 0.056 0 0 0 6.016 1.575 Q 6.007 1.572 5.996 1.571 A 0.123 0.123 0 0 0 5.987 1.571 A 0.137 0.137 0 0 0 5.959 1.573 Q 5.93 1.579 5.913 1.599 A 0.088 0.088 0 0 0 5.898 1.626 Q 5.894 1.639 5.892 1.655 A 0.233 0.233 0 0 0 5.89 1.686 L 5.89 1.883 L 5.837 1.883 L 5.837 1.655 A 0.157 0.157 0 0 0 5.835 1.632 Q 5.833 1.62 5.83 1.61 A 0.064 0.064 0 0 0 5.819 1.592 A 0.056 0.056 0 0 0 5.793 1.575 Q 5.784 1.572 5.773 1.571 A 0.124 0.124 0 0 0 5.763 1.571 A 0.132 0.132 0 0 0 5.735 1.573 Q 5.719 1.577 5.706 1.585 A 0.07 0.07 0 0 0 5.69 1.601 Q 5.669 1.628 5.667 1.686 A 0.37 0.37 0 0 0 5.666 1.699 L 5.666 1.883 L 5.613 1.883 L 5.613 1.532 L 5.657 1.532 L 5.665 1.58 L 5.668 1.58 A 0.104 0.104 0 0 1 5.71 1.54 A 0.126 0.126 0 0 1 5.76 1.526 A 0.152 0.152 0 0 1 5.771 1.526 Q 5.854 1.526 5.879 1.585 L 5.881 1.585 A 0.111 0.111 0 0 1 5.923 1.544 A 0.134 0.134 0 0 1 5.927 1.542 A 0.134 0.134 0 0 1 5.976 1.527 A 0.167 0.167 0 0 1 5.995 1.526 Q 6.054 1.526 6.084 1.556 A 0.091 0.091 0 0 1 6.103 1.588 Q 6.108 1.603 6.111 1.62 A 0.243 0.243 0 0 1 6.113 1.654 L 6.113 1.883 Z M 4.012 1.837 L 4.008 1.837 L 3.997 1.883 L 3.959 1.883 L 3.959 1.385 L 4.012 1.385 L 4.012 1.506 A 1.107 1.107 0 0 1 4.011 1.543 Q 4.011 1.562 4.009 1.579 L 4.012 1.579 A 0.121 0.121 0 0 1 4.1 1.528 A 0.181 0.181 0 0 1 4.122 1.526 A 0.162 0.162 0 0 1 4.168 1.532 A 0.121 0.121 0 0 1 4.229 1.574 A 0.156 0.156 0 0 1 4.257 1.626 Q 4.263 1.648 4.266 1.674 A 0.341 0.341 0 0 1 4.267 1.707 Q 4.267 1.793 4.229 1.841 A 0.126 0.126 0 0 1 4.14 1.888 A 0.18 0.18 0 0 1 4.122 1.889 A 0.161 0.161 0 0 1 4.081 1.884 A 0.14 0.14 0 0 1 4.059 1.876 A 0.118 0.118 0 0 1 4.012 1.837 Z M 4.917 1.839 L 4.917 1.879 A 0.052 0.052 0 0 1 4.911 1.882 Q 4.903 1.884 4.891 1.886 A 0.23 0.23 0 0 1 4.876 1.888 Q 4.868 1.889 4.861 1.889 A 0.139 0.139 0 0 1 4.82 1.883 Q 4.775 1.87 4.764 1.821 A 0.167 0.167 0 0 1 4.759 1.782 L 4.759 1.573 L 4.709 1.573 L 4.709 1.548 L 4.759 1.526 L 4.782 1.451 L 4.813 1.451 L 4.813 1.532 L 4.914 1.532 L 4.914 1.573 L 4.813 1.573 L 4.813 1.78 Q 4.813 1.802 4.82 1.817 A 0.051 0.051 0 0 0 4.828 1.828 A 0.049 0.049 0 0 0 4.858 1.844 A 0.071 0.071 0 0 0 4.869 1.845 A 0.174 0.174 0 0 0 4.894 1.843 A 0.162 0.162 0 0 0 4.896 1.843 A 0.287 0.287 0 0 0 4.904 1.842 Q 4.907 1.841 4.91 1.84 A 0.111 0.111 0 0 0 4.916 1.839 Z M 5.148 1.839 L 5.148 1.879 A 0.052 0.052 0 0 1 5.142 1.882 Q 5.134 1.884 5.122 1.886 A 0.23 0.23 0 0 1 5.107 1.888 Q 5.099 1.889 5.092 1.889 A 0.139 0.139 0 0 1 5.051 1.883 Q 5.007 1.87 4.995 1.821 A 0.167 0.167 0 0 1 4.991 1.782 L 4.991 1.573 L 4.94 1.573 L 4.94 1.548 L 4.991 1.526 L 5.013 1.451 L 5.044 1.451 L 5.044 1.532 L 5.145 1.532 L 5.145 1.573 L 5.044 1.573 L 5.044 1.78 Q 5.044 1.802 5.051 1.817 A 0.051 0.051 0 0 0 5.059 1.828 A 0.049 0.049 0 0 0 5.089 1.844 A 0.071 0.071 0 0 0 5.1 1.845 A 0.174 0.174 0 0 0 5.125 1.843 A 0.162 0.162 0 0 0 5.127 1.843 A 0.287 0.287 0 0 0 5.135 1.842 Q 5.138 1.841 5.142 1.84 A 0.111 0.111 0 0 0 5.147 1.839 Z M 4.658 1.76 A 0.274 0.274 0 0 0 4.663 1.707 Q 4.663 1.624 4.619 1.575 A 0.139 0.139 0 0 0 4.555 1.533 A 0.178 0.178 0 0 0 4.502 1.526 A 0.206 0.206 0 0 0 4.465 1.529 A 0.14 0.14 0 0 0 4.383 1.574 Q 4.341 1.621 4.341 1.707 A 0.266 0.266 0 0 0 4.344 1.75 A 0.196 0.196 0 0 0 4.36 1.804 A 0.174 0.174 0 0 0 4.364 1.811 A 0.144 0.144 0 0 0 4.417 1.867 A 0.148 0.148 0 0 0 4.451 1.882 A 0.17 0.17 0 0 0 4.5 1.889 Q 4.576 1.889 4.619 1.841 Q 4.648 1.809 4.658 1.76 Z M 5.516 1.76 A 0.274 0.274 0 0 0 5.52 1.707 Q 5.52 1.624 5.477 1.575 A 0.139 0.139 0 0 0 5.413 1.533 A 0.178 0.178 0 0 0 5.36 1.526 A 0.206 0.206 0 0 0 5.323 1.529 A 0.14 0.14 0 0 0 5.241 1.574 Q 5.198 1.621 5.198 1.707 A 0.266 0.266 0 0 0 5.202 1.75 A 0.196 0.196 0 0 0 5.218 1.804 A 0.174 0.174 0 0 0 5.222 1.811 A 0.144 0.144 0 0 0 5.275 1.867 A 0.148 0.148 0 0 0 5.308 1.882 A 0.17 0.17 0 0 0 5.358 1.889 Q 5.434 1.889 5.477 1.841 Q 5.506 1.809 5.516 1.76 Z M 4.407 1.781 A 0.111 0.111 0 0 0 4.422 1.809 A 0.087 0.087 0 0 0 4.479 1.843 A 0.132 0.132 0 0 0 4.501 1.844 A 0.123 0.123 0 0 0 4.534 1.84 A 0.086 0.086 0 0 0 4.581 1.809 A 0.114 0.114 0 0 0 4.598 1.775 Q 4.608 1.747 4.608 1.707 A 0.265 0.265 0 0 0 4.605 1.669 Q 4.602 1.65 4.596 1.635 A 0.109 0.109 0 0 0 4.581 1.605 A 0.087 0.087 0 0 0 4.526 1.573 A 0.134 0.134 0 0 0 4.501 1.571 A 0.126 0.126 0 0 0 4.469 1.574 A 0.085 0.085 0 0 0 4.422 1.605 Q 4.403 1.63 4.398 1.672 A 0.28 0.28 0 0 0 4.396 1.707 Q 4.396 1.751 4.407 1.781 Z M 5.265 1.781 A 0.111 0.111 0 0 0 5.28 1.809 A 0.087 0.087 0 0 0 5.337 1.843 A 0.132 0.132 0 0 0 5.359 1.844 A 0.123 0.123 0 0 0 5.392 1.84 A 0.086 0.086 0 0 0 5.438 1.809 A 0.114 0.114 0 0 0 5.456 1.775 Q 5.465 1.747 5.465 1.707 A 0.265 0.265 0 0 0 5.463 1.669 Q 5.46 1.65 5.454 1.635 A 0.109 0.109 0 0 0 5.438 1.605 A 0.087 0.087 0 0 0 5.384 1.573 A 0.134 0.134 0 0 0 5.359 1.571 A 0.126 0.126 0 0 0 5.327 1.574 A 0.085 0.085 0 0 0 5.28 1.605 Q 5.261 1.63 5.255 1.672 A 0.28 0.28 0 0 0 5.253 1.707 Q 5.253 1.751 5.265 1.781 Z M 4.114 1.571 A 0.149 0.149 0 0 0 4.085 1.573 Q 4.053 1.58 4.036 1.602 A 0.091 0.091 0 0 0 4.023 1.627 Q 4.014 1.652 4.012 1.69 A 0.409 0.409 0 0 0 4.012 1.707 A 0.351 0.351 0 0 0 4.014 1.743 Q 4.017 1.78 4.03 1.802 A 0.08 0.08 0 0 0 4.037 1.813 Q 4.059 1.841 4.105 1.844 A 0.171 0.171 0 0 0 4.116 1.844 A 0.106 0.106 0 0 0 4.146 1.84 A 0.076 0.076 0 0 0 4.188 1.809 Q 4.212 1.773 4.212 1.706 Q 4.212 1.638 4.188 1.604 A 0.077 0.077 0 0 0 4.139 1.573 A 0.123 0.123 0 0 0 4.114 1.571 Z" id="bottom_labelLayer" stroke="#777777" fill="#777777" style="stroke:#777777;fill:#777777" vector-effect="non-scaling-stroke"/></g></svg>