<?xml version="1.0" encoding="UTF-8" standalone="no"?>
<svg
   width="6.833in"
   height="10.072in"
   viewBox="0 0 6.833 10.072"
   version="1.1"
   preserveAspectRatio="xMidYMid meet"
   id="svg11706"
   sodipodi:docname="box-no-label.svg"
   inkscape:version="1.1 (1:1.1+202105261517+ce6663b3b7)"
   xmlns:inkscape="http://www.inkscape.org/namespaces/inkscape"
   xmlns:sodipodi="http://sodipodi.sourceforge.net/DTD/sodipodi-0.dtd"
   xmlns="http://www.w3.org/2000/svg"
   xmlns:svg="http://www.w3.org/2000/svg">
  <defs
     id="defs11710" />
  <sodipodi:namedview
     id="namedview11708"
     pagecolor="#ffffff"
     bordercolor="#666666"
     borderopacity="1.0"
     inkscape:pageshadow="2"
     inkscape:pageopacity="0.0"
     inkscape:pagecheckerboard="0"
     inkscape:document-units="in"
     showgrid="false"
     inkscape:zoom="0.6867223"
     inkscape:cx="329.82765"
     inkscape:cy="481.99979"
     inkscape:window-width="1920"
     inkscape:window-height="1043"
     inkscape:window-x="1600"
     inkscape:window-y="0"
     inkscape:window-maximized="1"
     inkscape:current-layer="svgGroup" />
  <g
     id="svgGroup"
     stroke-linecap="round"
     fill-rule="evenodd"
     font-size="9pt"
     stroke="#000"
     stroke-width="0.25mm"
     fill="none"
     style="stroke:#000;stroke-width:0.25mm;fill:none">
    <path
       d="M 0.671 10.061 L 0.671 9.954 L 0.943 9.954 L 0.943 10.061 L 0.954 10.072 L 1.28 10.072 L 1.291 10.061 L 1.291 9.954 L 1.603 9.954 L 1.614 9.943 L 1.614 9.511 L 1.603 9.5 L 1.33 9.5 L 1.33 9.228 L 1.603 9.228 L 1.614 9.217 L 1.614 8.892 L 1.603 8.881 L 1.33 8.881 L 1.33 8.609 L 1.603 8.609 L 1.614 8.598 L 1.614 8.272 L 1.603 8.261 L 1.33 8.261 L 1.33 7.989 L 1.603 7.989 L 1.614 7.978 L 1.614 7.653 L 1.603 7.642 L 1.33 7.642 L 1.33 7.37 L 1.603 7.37 L 1.614 7.359 L 1.614 6.927 L 1.603 6.916 L 1.291 6.916 L 1.291 6.809 L 1.28 6.798 L 0.954 6.798 L 0.943 6.809 L 0.943 6.916 L 0.671 6.916 L 0.671 6.809 L 0.66 6.798 L 0.335 6.798 L 0.324 6.809 L 0.324 6.916 L 0.296 6.916 L 0.285 6.927 L 0.285 7.332 L 0.011 7.332 L 0 7.343 L 0 7.668 L 0.011 7.68 L 0.285 7.68 L 0.285 7.951 L 0.011 7.951 L 0 7.963 L 0 8.288 L 0.011 8.299 L 0.285 8.299 L 0.285 8.571 L 0.011 8.571 L 0 8.582 L 0 8.907 L 0.011 8.919 L 0.285 8.919 L 0.285 9.19 L 0.011 9.19 L 0 9.202 L 0 9.527 L 0.011 9.538 L 0.285 9.538 L 0.285 9.943 L 0.296 9.954 L 0.324 9.954 L 0.324 10.061 L 0.335 10.072 L 0.66 10.072 L 0.671 10.061 Z"
       id="side1_outsideCutPath"
       stroke="#FF0000"
       stroke-width="0.1"
       style="stroke:#FF0000;stroke-width:0.1"
       vector-effect="non-scaling-stroke" />
    <path
       d="M 2.411 10.061 L 2.411 9.954 L 2.682 9.954 L 2.682 10.061 L 2.694 10.072 L 3.019 10.072 L 3.03 10.061 L 3.03 9.954 L 3.343 9.954 L 3.354 9.943 L 3.354 9.511 L 3.343 9.5 L 3.069 9.5 L 3.069 9.228 L 3.343 9.228 L 3.354 9.217 L 3.354 8.892 L 3.343 8.881 L 3.069 8.881 L 3.069 8.609 L 3.343 8.609 L 3.354 8.598 L 3.354 8.272 L 3.343 8.261 L 3.069 8.261 L 3.069 7.989 L 3.343 7.989 L 3.354 7.978 L 3.354 7.653 L 3.343 7.642 L 3.069 7.642 L 3.069 7.37 L 3.343 7.37 L 3.354 7.359 L 3.354 6.927 L 3.343 6.916 L 3.03 6.916 L 3.03 6.809 L 3.019 6.798 L 2.694 6.798 L 2.682 6.809 L 2.682 6.916 L 2.411 6.916 L 2.411 6.809 L 2.4 6.798 L 2.074 6.798 L 2.063 6.809 L 2.063 6.916 L 2.035 6.916 L 2.024 6.927 L 2.024 7.332 L 1.751 7.332 L 1.739 7.343 L 1.739 7.668 L 1.751 7.68 L 2.024 7.68 L 2.024 7.951 L 1.751 7.951 L 1.739 7.963 L 1.739 8.288 L 1.751 8.299 L 2.024 8.299 L 2.024 8.571 L 1.751 8.571 L 1.739 8.582 L 1.739 8.907 L 1.751 8.919 L 2.024 8.919 L 2.024 9.19 L 1.751 9.19 L 1.739 9.202 L 1.739 9.527 L 1.751 9.538 L 2.024 9.538 L 2.024 9.943 L 2.035 9.954 L 2.063 9.954 L 2.063 10.061 L 2.074 10.072 L 2.4 10.072 L 2.411 10.061 Z"
       id="side3_outsideCutPath"
       stroke="#FF0000"
       stroke-width="0.1"
       style="stroke:#FF0000;stroke-width:0.1"
       vector-effect="non-scaling-stroke" />
    <path
       d="M 4.15 10.061 L 4.15 9.954 L 4.422 9.954 L 4.422 10.061 L 4.433 10.072 L 4.758 10.072 L 4.77 10.061 L 4.77 9.954 L 5.082 9.954 L 5.093 9.943 L 5.093 9.511 L 5.082 9.5 L 4.808 9.5 L 4.808 9.228 L 5.082 9.228 L 5.093 9.217 L 5.093 8.892 L 5.082 8.881 L 4.808 8.881 L 4.808 8.609 L 5.082 8.609 L 5.093 8.598 L 5.093 8.272 L 5.082 8.261 L 4.808 8.261 L 4.808 7.989 L 5.082 7.989 L 5.093 7.978 L 5.093 7.653 L 5.082 7.642 L 4.808 7.642 L 4.808 7.37 L 5.082 7.37 L 5.093 7.359 L 5.093 6.927 L 5.082 6.916 L 4.77 6.916 L 4.77 6.809 L 4.758 6.798 L 4.433 6.798 L 4.422 6.809 L 4.422 6.916 L 4.15 6.916 L 4.15 6.809 L 4.139 6.798 L 3.813 6.798 L 3.802 6.809 L 3.802 6.916 L 3.775 6.916 L 3.764 6.927 L 3.764 7.332 L 3.49 7.332 L 3.479 7.343 L 3.479 7.668 L 3.49 7.68 L 3.764 7.68 L 3.764 7.951 L 3.49 7.951 L 3.479 7.963 L 3.479 8.288 L 3.49 8.299 L 3.764 8.299 L 3.764 8.571 L 3.49 8.571 L 3.479 8.582 L 3.479 8.907 L 3.49 8.919 L 3.764 8.919 L 3.764 9.19 L 3.49 9.19 L 3.479 9.202 L 3.479 9.527 L 3.49 9.538 L 3.764 9.538 L 3.764 9.943 L 3.775 9.954 L 3.802 9.954 L 3.802 10.061 L 3.813 10.072 L 4.139 10.072 L 4.15 10.061 Z"
       id="side5_outsideCutPath"
       stroke="#FF0000"
       stroke-width="0.1"
       style="stroke:#FF0000;stroke-width:0.1"
       vector-effect="non-scaling-stroke" />
    <path
       d="M 5.89 10.061 L 5.89 9.954 L 6.161 9.954 L 6.161 10.061 L 6.172 10.072 L 6.498 10.072 L 6.509 10.061 L 6.509 9.954 L 6.821 9.954 L 6.833 9.943 L 6.833 9.511 L 6.821 9.5 L 6.548 9.5 L 6.548 9.228 L 6.821 9.228 L 6.833 9.217 L 6.833 8.892 L 6.821 8.881 L 6.548 8.881 L 6.548 8.609 L 6.821 8.609 L 6.833 8.598 L 6.833 8.272 L 6.821 8.261 L 6.548 8.261 L 6.548 7.989 L 6.821 7.989 L 6.833 7.978 L 6.833 7.653 L 6.821 7.642 L 6.548 7.642 L 6.548 7.37 L 6.821 7.37 L 6.833 7.359 L 6.833 6.927 L 6.821 6.916 L 6.509 6.916 L 6.509 6.809 L 6.498 6.798 L 6.172 6.798 L 6.161 6.809 L 6.161 6.916 L 5.89 6.916 L 5.89 6.809 L 5.878 6.798 L 5.553 6.798 L 5.542 6.809 L 5.542 6.916 L 5.514 6.916 L 5.503 6.927 L 5.503 7.332 L 5.229 7.332 L 5.218 7.343 L 5.218 7.668 L 5.229 7.68 L 5.503 7.68 L 5.503 7.951 L 5.229 7.951 L 5.218 7.963 L 5.218 8.288 L 5.229 8.299 L 5.503 8.299 L 5.503 8.571 L 5.229 8.571 L 5.218 8.582 L 5.218 8.907 L 5.229 8.919 L 5.503 8.919 L 5.503 9.19 L 5.229 9.19 L 5.218 9.202 L 5.218 9.527 L 5.229 9.538 L 5.503 9.538 L 5.503 9.943 L 5.514 9.954 L 5.542 9.954 L 5.542 10.061 L 5.553 10.072 L 5.878 10.072 L 5.89 10.061 Z"
       id="side7_outsideCutPath"
       stroke="#FF0000"
       stroke-width="0.1"
       style="stroke:#FF0000;stroke-width:0.1"
       vector-effect="non-scaling-stroke" />
    <path
       d="M 0.671 6.662 L 0.671 6.555 L 0.943 6.555 L 0.943 6.662 L 0.954 6.673 L 1.28 6.673 L 1.291 6.662 L 1.291 6.555 L 1.603 6.555 L 1.614 6.544 L 1.614 6.112 L 1.603 6.101 L 1.33 6.101 L 1.33 5.829 L 1.603 5.829 L 1.614 5.818 L 1.614 5.493 L 1.603 5.482 L 1.33 5.482 L 1.33 5.21 L 1.603 5.21 L 1.614 5.199 L 1.614 4.873 L 1.603 4.862 L 1.33 4.862 L 1.33 4.59 L 1.603 4.59 L 1.614 4.579 L 1.614 4.254 L 1.603 4.243 L 1.33 4.243 L 1.33 3.971 L 1.603 3.971 L 1.614 3.96 L 1.614 3.528 L 1.603 3.517 L 1.291 3.517 L 1.291 3.41 L 1.28 3.399 L 0.954 3.399 L 0.943 3.41 L 0.943 3.517 L 0.671 3.517 L 0.671 3.41 L 0.66 3.399 L 0.335 3.399 L 0.324 3.41 L 0.324 3.517 L 0.296 3.517 L 0.285 3.528 L 0.285 3.933 L 0.011 3.933 L 0 3.944 L 0 4.269 L 0.011 4.281 L 0.285 4.281 L 0.285 4.552 L 0.011 4.552 L 0 4.564 L 0 4.889 L 0.011 4.9 L 0.285 4.9 L 0.285 5.172 L 0.011 5.172 L 0 5.183 L 0 5.508 L 0.011 5.52 L 0.285 5.52 L 0.285 5.791 L 0.011 5.791 L 0 5.803 L 0 6.128 L 0.011 6.139 L 0.285 6.139 L 0.285 6.544 L 0.296 6.555 L 0.324 6.555 L 0.324 6.662 L 0.335 6.673 L 0.66 6.673 L 0.671 6.662 Z"
       id="side0_outsideCutPath"
       stroke="#FF0000"
       stroke-width="0.1"
       style="stroke:#FF0000;stroke-width:0.1"
       vector-effect="non-scaling-stroke" />
    <path
       d="M 2.411 6.662 L 2.411 6.555 L 2.682 6.555 L 2.682 6.662 L 2.694 6.673 L 3.019 6.673 L 3.03 6.662 L 3.03 6.555 L 3.343 6.555 L 3.354 6.544 L 3.354 6.112 L 3.343 6.101 L 3.069 6.101 L 3.069 5.829 L 3.343 5.829 L 3.354 5.818 L 3.354 5.493 L 3.343 5.482 L 3.069 5.482 L 3.069 5.21 L 3.343 5.21 L 3.354 5.199 L 3.354 4.873 L 3.343 4.862 L 3.069 4.862 L 3.069 4.59 L 3.343 4.59 L 3.354 4.579 L 3.354 4.254 L 3.343 4.243 L 3.069 4.243 L 3.069 3.971 L 3.343 3.971 L 3.354 3.96 L 3.354 3.528 L 3.343 3.517 L 3.03 3.517 L 3.03 3.41 L 3.019 3.399 L 2.694 3.399 L 2.682 3.41 L 2.682 3.517 L 2.411 3.517 L 2.411 3.41 L 2.4 3.399 L 2.074 3.399 L 2.063 3.41 L 2.063 3.517 L 2.035 3.517 L 2.024 3.528 L 2.024 3.933 L 1.751 3.933 L 1.739 3.944 L 1.739 4.269 L 1.751 4.281 L 2.024 4.281 L 2.024 4.552 L 1.751 4.552 L 1.739 4.564 L 1.739 4.889 L 1.751 4.9 L 2.024 4.9 L 2.024 5.172 L 1.751 5.172 L 1.739 5.183 L 1.739 5.508 L 1.751 5.52 L 2.024 5.52 L 2.024 5.791 L 1.751 5.791 L 1.739 5.803 L 1.739 6.128 L 1.751 6.139 L 2.024 6.139 L 2.024 6.544 L 2.035 6.555 L 2.063 6.555 L 2.063 6.662 L 2.074 6.673 L 2.4 6.673 L 2.411 6.662 Z"
       id="side2_outsideCutPath"
       stroke="#FF0000"
       stroke-width="0.1"
       style="stroke:#FF0000;stroke-width:0.1"
       vector-effect="non-scaling-stroke" />
    <path
       d="M 4.15 6.662 L 4.15 6.555 L 4.422 6.555 L 4.422 6.662 L 4.433 6.673 L 4.758 6.673 L 4.77 6.662 L 4.77 6.555 L 5.082 6.555 L 5.093 6.544 L 5.093 6.112 L 5.082 6.101 L 4.808 6.101 L 4.808 5.829 L 5.082 5.829 L 5.093 5.818 L 5.093 5.493 L 5.082 5.482 L 4.808 5.482 L 4.808 5.21 L 5.082 5.21 L 5.093 5.199 L 5.093 4.873 L 5.082 4.862 L 4.808 4.862 L 4.808 4.59 L 5.082 4.59 L 5.093 4.579 L 5.093 4.254 L 5.082 4.243 L 4.808 4.243 L 4.808 3.971 L 5.082 3.971 L 5.093 3.96 L 5.093 3.528 L 5.082 3.517 L 4.77 3.517 L 4.77 3.41 L 4.758 3.399 L 4.433 3.399 L 4.422 3.41 L 4.422 3.517 L 4.15 3.517 L 4.15 3.41 L 4.139 3.399 L 3.813 3.399 L 3.802 3.41 L 3.802 3.517 L 3.775 3.517 L 3.764 3.528 L 3.764 3.933 L 3.49 3.933 L 3.479 3.944 L 3.479 4.269 L 3.49 4.281 L 3.764 4.281 L 3.764 4.552 L 3.49 4.552 L 3.479 4.564 L 3.479 4.889 L 3.49 4.9 L 3.764 4.9 L 3.764 5.172 L 3.49 5.172 L 3.479 5.183 L 3.479 5.508 L 3.49 5.52 L 3.764 5.52 L 3.764 5.791 L 3.49 5.791 L 3.479 5.803 L 3.479 6.128 L 3.49 6.139 L 3.764 6.139 L 3.764 6.544 L 3.775 6.555 L 3.802 6.555 L 3.802 6.662 L 3.813 6.673 L 4.139 6.673 L 4.15 6.662 Z"
       id="side4_outsideCutPath"
       stroke="#FF0000"
       stroke-width="0.1"
       style="stroke:#FF0000;stroke-width:0.1"
       vector-effect="non-scaling-stroke" />
    <path
       d="M 5.89 6.662 L 5.89 6.555 L 6.161 6.555 L 6.161 6.662 L 6.172 6.673 L 6.498 6.673 L 6.509 6.662 L 6.509 6.555 L 6.821 6.555 L 6.833 6.544 L 6.833 6.112 L 6.821 6.101 L 6.548 6.101 L 6.548 5.829 L 6.821 5.829 L 6.833 5.818 L 6.833 5.493 L 6.821 5.482 L 6.548 5.482 L 6.548 5.21 L 6.821 5.21 L 6.833 5.199 L 6.833 4.873 L 6.821 4.862 L 6.548 4.862 L 6.548 4.59 L 6.821 4.59 L 6.833 4.579 L 6.833 4.254 L 6.821 4.243 L 6.548 4.243 L 6.548 3.971 L 6.821 3.971 L 6.833 3.96 L 6.833 3.528 L 6.821 3.517 L 6.509 3.517 L 6.509 3.41 L 6.498 3.399 L 6.172 3.399 L 6.161 3.41 L 6.161 3.517 L 5.89 3.517 L 5.89 3.41 L 5.878 3.399 L 5.553 3.399 L 5.542 3.41 L 5.542 3.517 L 5.514 3.517 L 5.503 3.528 L 5.503 3.933 L 5.229 3.933 L 5.218 3.944 L 5.218 4.269 L 5.229 4.281 L 5.503 4.281 L 5.503 4.552 L 5.229 4.552 L 5.218 4.564 L 5.218 4.889 L 5.229 4.9 L 5.503 4.9 L 5.503 5.172 L 5.229 5.172 L 5.218 5.183 L 5.218 5.508 L 5.229 5.52 L 5.503 5.52 L 5.503 5.791 L 5.229 5.791 L 5.218 5.803 L 5.218 6.128 L 5.229 6.139 L 5.503 6.139 L 5.503 6.544 L 5.514 6.555 L 5.542 6.555 L 5.542 6.662 L 5.553 6.673 L 5.878 6.673 L 5.89 6.662 Z"
       id="side6_outsideCutPath"
       stroke="#FF0000"
       stroke-width="0.1"
       style="stroke:#FF0000;stroke-width:0.1"
       vector-effect="non-scaling-stroke" />
    <path
       d="M 2.318 3.271 L 2.472 3.118 L 2.472 3.102 L 2.396 3.026 L 2.588 2.834 L 2.664 2.91 L 2.679 2.91 L 2.91 2.679 L 2.91 2.664 L 2.834 2.588 L 3.026 2.396 L 3.102 2.472 L 3.118 2.472 L 3.271 2.318 L 3.274 2.311 L 3.274 2.094 L 3.263 2.083 L 3.156 2.083 L 3.156 1.811 L 3.263 1.811 L 3.274 1.8 L 3.274 1.474 L 3.263 1.463 L 3.156 1.463 L 3.156 1.191 L 3.263 1.191 L 3.274 1.18 L 3.274 0.963 L 3.271 0.956 L 3.118 0.802 L 3.102 0.802 L 3.026 0.878 L 2.834 0.686 L 2.91 0.61 L 2.91 0.595 L 2.679 0.364 L 2.664 0.364 L 2.588 0.44 L 2.396 0.248 L 2.472 0.172 L 2.472 0.156 L 2.318 0.003 L 2.311 0 L 2.094 0 L 2.083 0.011 L 2.083 0.118 L 1.811 0.118 L 1.811 0.011 L 1.8 0 L 1.474 0 L 1.463 0.011 L 1.463 0.118 L 1.191 0.118 L 1.191 0.011 L 1.18 0 L 0.963 0 L 0.956 0.003 L 0.802 0.156 L 0.802 0.172 L 0.878 0.248 L 0.686 0.44 L 0.61 0.364 L 0.595 0.364 L 0.364 0.595 L 0.364 0.61 L 0.44 0.686 L 0.248 0.878 L 0.172 0.802 L 0.156 0.802 L 0.003 0.956 L 0 0.963 L 0 1.18 L 0.011 1.191 L 0.118 1.191 L 0.118 1.463 L 0.011 1.463 L 0 1.474 L 0 1.8 L 0.011 1.811 L 0.118 1.811 L 0.118 2.083 L 0.011 2.083 L 0 2.094 L 0 2.311 L 0.003 2.318 L 0.156 2.472 L 0.172 2.472 L 0.248 2.396 L 0.44 2.588 L 0.364 2.664 L 0.364 2.679 L 0.595 2.91 L 0.61 2.91 L 0.686 2.834 L 0.878 3.026 L 0.802 3.102 L 0.802 3.118 L 0.956 3.271 L 0.963 3.274 L 1.18 3.274 L 1.191 3.263 L 1.191 3.156 L 1.463 3.156 L 1.463 3.263 L 1.474 3.274 L 1.8 3.274 L 1.811 3.263 L 1.811 3.156 L 2.083 3.156 L 2.083 3.263 L 2.094 3.274 L 2.311 3.274 L 2.318 3.271 Z"
       id="top_outsideCutPath"
       stroke="#FF0000"
       stroke-width="0.1"
       style="stroke:#FF0000;stroke-width:0.1"
       vector-effect="non-scaling-stroke" />
    <path
       d="M 5.717 3.271 L 5.871 3.118 L 5.871 3.102 L 5.795 3.026 L 5.987 2.834 L 6.063 2.91 L 6.078 2.91 L 6.309 2.679 L 6.309 2.664 L 6.233 2.588 L 6.425 2.396 L 6.501 2.472 L 6.517 2.472 L 6.67 2.318 L 6.673 2.311 L 6.673 2.094 L 6.662 2.083 L 6.555 2.083 L 6.555 1.811 L 6.662 1.811 L 6.673 1.8 L 6.673 1.474 L 6.662 1.463 L 6.555 1.463 L 6.555 1.191 L 6.662 1.191 L 6.673 1.18 L 6.673 0.963 L 6.67 0.956 L 6.517 0.802 L 6.501 0.802 L 6.425 0.878 L 6.233 0.686 L 6.309 0.61 L 6.309 0.595 L 6.078 0.364 L 6.063 0.364 L 5.987 0.44 L 5.795 0.248 L 5.871 0.172 L 5.871 0.156 L 5.717 0.003 L 5.71 0 L 5.493 0 L 5.482 0.011 L 5.482 0.118 L 5.21 0.118 L 5.21 0.011 L 5.199 0 L 4.873 0 L 4.862 0.011 L 4.862 0.118 L 4.59 0.118 L 4.59 0.011 L 4.579 0 L 4.362 0 L 4.355 0.003 L 4.201 0.156 L 4.201 0.172 L 4.277 0.248 L 4.085 0.44 L 4.009 0.364 L 3.994 0.364 L 3.763 0.595 L 3.763 0.61 L 3.839 0.686 L 3.647 0.878 L 3.571 0.802 L 3.555 0.802 L 3.402 0.956 L 3.399 0.963 L 3.399 1.18 L 3.41 1.191 L 3.517 1.191 L 3.517 1.463 L 3.41 1.463 L 3.399 1.474 L 3.399 1.8 L 3.41 1.811 L 3.517 1.811 L 3.517 2.083 L 3.41 2.083 L 3.399 2.094 L 3.399 2.311 L 3.402 2.318 L 3.555 2.472 L 3.571 2.472 L 3.647 2.396 L 3.839 2.588 L 3.763 2.664 L 3.763 2.679 L 3.994 2.91 L 4.009 2.91 L 4.085 2.834 L 4.277 3.026 L 4.201 3.102 L 4.201 3.118 L 4.355 3.271 L 4.362 3.274 L 4.579 3.274 L 4.59 3.263 L 4.59 3.156 L 4.862 3.156 L 4.862 3.263 L 4.873 3.274 L 5.199 3.274 L 5.21 3.263 L 5.21 3.156 L 5.482 3.156 L 5.482 3.263 L 5.493 3.274 L 5.71 3.274 L 5.717 3.271 Z"
       id="bottom_outsideCutPath"
       stroke="#FF0000"
       stroke-width="0.1"
       style="stroke:#FF0000;stroke-width:0.1"
       vector-effect="non-scaling-stroke" />
  </g>
</svg>
